<?xml version="1.0" encoding="UTF-8"?>
<svg xmlns="http://www.w3.org/2000/svg" xmlns:xlink="http://www.w3.org/1999/xlink" width="810pt" height="809.999993pt" viewBox="0 0 810 809.999993" version="1.2" opacity="0.03">
<defs>
<clipPath id="clip1">
  <path d="M 70 43 L 808.820312 43 L 808.820312 398.460938 L 70 398.460938 Z M 70 43 "/>
</clipPath>
<clipPath id="clip2">
  <path d="M 501.078125 529 L 515 529 L 515 542.222656 L 501.078125 542.222656 Z M 501.078125 529 "/>
</clipPath>
<clipPath id="clip3">
  <path d="M 324 7.5 L 337 7.5 L 337 20 L 324 20 Z M 324 7.5 "/>
</clipPath>
</defs>
<g id="surface1">
<g clip-path="url(#clip1)" clip-rule="nonzero">
<path style=" stroke:none;fill-rule:nonzero;fill:rgb(64.709473%,100%,56.469727%);fill-opacity:1;" d="M 285.679688 398.167969 L 70.324219 246.242188 L 71.28125 245.539062 L 221.011719 134.660156 L 158.136719 44.53125 L 159.542969 43.546875 L 223.371094 135.042969 L 73.246094 246.207031 L 285.363281 395.847656 L 499.945312 133.625 L 500.613281 134.207031 L 682.757812 293.03125 L 807.617188 168.941406 L 808.824219 170.15625 L 682.832031 295.371094 L 682.230469 294.84375 L 500.148438 136.078125 L 285.679688 398.167969 "/>
</g>
<path style=" stroke:none;fill-rule:nonzero;fill:rgb(64.709473%,100%,56.469727%);fill-opacity:1;" d="M 295.390625 396.679688 C 295.390625 402.824219 290.414062 407.800781 284.277344 407.800781 C 278.136719 407.800781 273.15625 402.824219 273.15625 396.679688 C 273.15625 390.539062 278.136719 385.5625 284.277344 385.5625 C 290.414062 385.5625 295.390625 390.539062 295.390625 396.679688 "/>
<path style=" stroke:none;fill-rule:nonzero;fill:rgb(64.709473%,100%,56.469727%);fill-opacity:1;" d="M 284.277344 376.613281 C 273.21875 376.613281 264.222656 385.617188 264.222656 396.679688 C 264.222656 407.746094 273.21875 416.742188 284.277344 416.742188 C 295.332031 416.742188 304.324219 407.746094 304.324219 396.679688 C 304.324219 385.617188 295.332031 376.613281 284.277344 376.613281 Z M 284.277344 418.042969 C 272.503906 418.042969 262.921875 408.464844 262.921875 396.679688 C 262.921875 384.898438 272.503906 375.316406 284.277344 375.316406 C 296.050781 375.316406 305.625 384.898438 305.625 396.679688 C 305.625 408.464844 296.050781 418.042969 284.277344 418.042969 "/>
<path style=" stroke:none;fill-rule:nonzero;fill:rgb(64.709473%,100%,56.469727%);fill-opacity:1;" d="M 232.035156 135.421875 C 232.035156 141.566406 227.054688 146.542969 220.917969 146.542969 C 214.777344 146.542969 209.804688 141.566406 209.804688 135.421875 C 209.804688 129.28125 214.777344 124.300781 220.917969 124.300781 C 227.054688 124.300781 232.035156 129.28125 232.035156 135.421875 "/>
<path style=" stroke:none;fill-rule:nonzero;fill:rgb(64.709473%,100%,56.469727%);fill-opacity:1;" d="M 220.917969 115.359375 C 209.867188 115.359375 200.867188 124.359375 200.867188 135.421875 C 200.867188 146.484375 209.867188 155.492188 220.917969 155.492188 C 231.972656 155.492188 240.972656 146.484375 240.972656 135.421875 C 240.972656 124.359375 231.972656 115.359375 220.917969 115.359375 Z M 220.917969 156.792969 C 209.144531 156.792969 199.566406 147.203125 199.566406 135.421875 C 199.566406 123.640625 209.144531 114.058594 220.917969 114.058594 C 232.691406 114.058594 242.273438 123.640625 242.273438 135.421875 C 242.273438 147.203125 232.691406 156.792969 220.917969 156.792969 "/>
<path style=" stroke:none;fill-rule:nonzero;fill:rgb(64.709473%,100%,56.469727%);fill-opacity:1;" d="M 82.902344 246.796875 C 82.902344 252.9375 77.925781 257.921875 71.789062 257.921875 C 65.648438 257.921875 60.671875 252.9375 60.671875 246.796875 C 60.671875 240.652344 65.648438 235.675781 71.789062 235.675781 C 77.925781 235.675781 82.902344 240.652344 82.902344 246.796875 "/>
<path style=" stroke:none;fill-rule:nonzero;fill:rgb(64.709473%,100%,56.469727%);fill-opacity:1;" d="M 71.789062 226.730469 C 60.730469 226.730469 51.734375 235.730469 51.734375 246.796875 C 51.734375 257.859375 60.730469 266.863281 71.789062 266.863281 C 82.84375 266.863281 91.835938 257.859375 91.835938 246.796875 C 91.835938 235.730469 82.84375 226.730469 71.789062 226.730469 Z M 71.789062 268.164062 C 60.015625 268.164062 50.433594 258.578125 50.433594 246.796875 C 50.433594 235.011719 60.015625 225.429688 71.789062 225.429688 C 83.5625 225.429688 93.136719 235.011719 93.136719 246.796875 C 93.136719 258.578125 83.5625 268.164062 71.789062 268.164062 "/>
<path style=" stroke:none;fill-rule:nonzero;fill:rgb(64.709473%,100%,56.469727%);fill-opacity:1;" d="M 510.96875 135.421875 C 510.96875 141.566406 505.992188 146.542969 499.855469 146.542969 C 493.71875 146.542969 488.742188 141.566406 488.742188 135.421875 C 488.742188 129.28125 493.71875 124.300781 499.855469 124.300781 C 505.992188 124.300781 510.96875 129.28125 510.96875 135.421875 "/>
<path style=" stroke:none;fill-rule:nonzero;fill:rgb(64.709473%,100%,56.469727%);fill-opacity:1;" d="M 499.855469 115.359375 C 488.800781 115.359375 479.800781 124.359375 479.800781 135.421875 C 479.800781 146.484375 488.800781 155.492188 499.855469 155.492188 C 510.910156 155.492188 519.90625 146.484375 519.90625 135.421875 C 519.90625 124.359375 510.910156 115.359375 499.855469 115.359375 Z M 499.855469 156.792969 C 488.082031 156.792969 478.5 147.203125 478.5 135.421875 C 478.5 123.640625 488.082031 114.058594 499.855469 114.058594 C 511.628906 114.058594 521.203125 123.640625 521.203125 135.421875 C 521.203125 147.203125 511.628906 156.792969 499.855469 156.792969 "/>
<path style=" stroke:none;fill-rule:nonzero;fill:rgb(64.709473%,100%,56.469727%);fill-opacity:1;" d="M 694.183594 293.628906 C 694.183594 299.773438 689.207031 304.75 683.070312 304.75 C 676.929688 304.75 671.957031 299.773438 671.957031 293.628906 C 671.957031 287.484375 676.929688 282.507812 683.070312 282.507812 C 689.207031 282.507812 694.183594 287.484375 694.183594 293.628906 "/>
<path style=" stroke:none;fill-rule:nonzero;fill:rgb(64.709473%,100%,56.469727%);fill-opacity:1;" d="M 683.070312 273.566406 C 672.011719 273.566406 663.015625 282.566406 663.015625 293.628906 C 663.015625 304.691406 672.011719 313.699219 683.070312 313.699219 C 694.125 313.699219 703.125 304.691406 703.125 293.628906 C 703.125 282.566406 694.125 273.566406 683.070312 273.566406 Z M 683.070312 315 C 671.292969 315 661.714844 305.410156 661.714844 293.628906 C 661.714844 281.847656 671.292969 272.265625 683.070312 272.265625 C 694.84375 272.265625 704.417969 281.847656 704.417969 293.628906 C 704.417969 305.410156 694.84375 315 683.070312 315 "/>
<path style=" stroke:none;fill-rule:nonzero;fill:rgb(64.709473%,100%,56.469727%);fill-opacity:1;" d="M 428.324219 206.699219 L 427 205.613281 L 429.707031 202.296875 L 431.035156 203.382812 L 428.324219 206.699219 "/>
<path style=" stroke:none;fill-rule:nonzero;fill:rgb(64.709473%,100%,56.469727%);fill-opacity:1;" d="M 417.3125 220.152344 L 415.988281 219.066406 L 421.496094 212.335938 L 422.816406 213.421875 Z M 406.300781 233.605469 L 404.980469 232.519531 L 410.484375 225.792969 L 411.808594 226.878906 Z M 395.289062 247.0625 L 393.96875 245.976562 L 399.472656 239.25 L 400.796875 240.335938 Z M 384.28125 260.515625 L 382.957031 259.429688 L 388.460938 252.707031 L 389.785156 253.792969 Z M 373.269531 273.972656 L 371.945312 272.886719 L 377.453125 266.160156 L 378.773438 267.25 Z M 362.257812 287.429688 L 360.933594 286.34375 L 366.441406 279.617188 L 367.761719 280.703125 Z M 351.246094 300.886719 L 349.921875 299.800781 L 355.429688 293.074219 L 356.753906 294.160156 Z M 340.234375 314.34375 L 338.914062 313.257812 L 344.417969 306.523438 L 345.742188 307.609375 L 340.234375 314.34375 "/>
<path style=" stroke:none;fill-rule:nonzero;fill:rgb(64.709473%,100%,56.469727%);fill-opacity:1;" d="M 332.015625 324.382812 L 330.695312 323.296875 L 333.40625 319.980469 L 334.730469 321.066406 L 332.015625 324.382812 "/>
<path style=" stroke:none;fill-rule:nonzero;fill:rgb(64.709473%,100%,56.469727%);fill-opacity:1;" d="M 134.253906 186.449219 L 133.230469 185.074219 L 140.109375 179.964844 L 141.128906 181.347656 Z M 120.5 196.65625 L 119.476562 195.28125 L 126.359375 190.175781 L 127.375 191.550781 Z M 106.75 206.867188 L 105.730469 205.488281 L 112.605469 200.386719 L 113.628906 201.757812 Z M 92.996094 217.078125 L 91.980469 215.695312 L 98.851562 210.59375 L 99.875 211.976562 L 92.996094 217.078125 "/>
<path style=" stroke:none;fill-rule:nonzero;fill:rgb(64.709473%,100%,56.469727%);fill-opacity:1;" d="M 481.460938 92.332031 L 480.789062 90.753906 C 486.144531 88.457031 491.828125 87.167969 497.683594 86.910156 L 497.765625 88.621094 C 492.113281 88.871094 486.628906 90.121094 481.460938 92.332031 Z M 529.054688 98.804688 C 524.636719 95.273438 519.683594 92.597656 514.335938 90.863281 L 514.867188 89.234375 C 520.40625 91.03125 525.546875 93.804688 530.125 97.46875 Z M 457.671875 115.089844 L 456.128906 114.339844 C 458.664062 109.085938 462.097656 104.371094 466.332031 100.320312 L 467.511719 101.554688 C 463.425781 105.46875 460.117188 110.019531 457.671875 115.089844 Z M 545.929688 127.066406 C 544.929688 121.519531 542.957031 116.253906 540.054688 111.40625 L 541.527344 110.523438 C 544.53125 115.550781 546.578125 121.015625 547.613281 126.769531 Z M 453.0625 148.335938 C 451.910156 144.148438 451.328125 139.804688 451.328125 135.421875 C 451.328125 133.96875 451.390625 132.5 451.519531 131.0625 L 453.226562 131.214844 C 453.105469 132.601562 453.042969 134.015625 453.042969 135.421875 C 453.042969 139.652344 453.601562 143.84375 454.714844 147.878906 Z M 545.296875 152.492188 L 543.695312 151.894531 C 545.667969 146.632812 546.667969 141.089844 546.667969 135.421875 L 548.382812 135.421875 C 548.382812 141.300781 547.34375 147.039062 545.296875 152.492188 Z M 473.113281 175.949219 C 468.242188 172.726562 464.023438 168.691406 460.585938 163.964844 L 461.972656 162.953125 C 465.289062 167.515625 469.355469 171.40625 474.058594 174.523438 Z M 522.851562 178.195312 L 522.035156 176.691406 C 526.992188 174.015625 531.390625 170.503906 535.105469 166.25 L 536.394531 167.378906 C 532.542969 171.785156 527.980469 175.429688 522.851562 178.195312 Z M 499.855469 183.980469 C 496.210938 183.980469 492.574219 183.574219 489.054688 182.777344 L 489.433594 181.101562 C 494.863281 182.339844 500.636719 182.589844 506.136719 181.847656 L 506.363281 183.546875 C 504.226562 183.835938 502.039062 183.980469 499.855469 183.980469 "/>
<path style=" stroke:none;fill-rule:nonzero;fill:rgb(64.709473%,100%,56.469727%);fill-opacity:1;" d="M 265.882812 353.585938 L 265.203125 352.011719 C 270.5625 349.714844 276.25 348.421875 282.105469 348.167969 L 282.183594 349.875 C 276.53125 350.125 271.042969 351.375 265.882812 353.585938 Z M 313.472656 360.054688 C 309.054688 356.527344 304.105469 353.855469 298.757812 352.113281 L 299.285156 350.484375 C 304.828125 352.289062 309.960938 355.0625 314.539062 358.722656 Z M 242.089844 376.339844 L 240.546875 375.601562 C 243.082031 370.34375 246.511719 365.621094 250.746094 361.574219 L 251.933594 362.8125 C 247.847656 366.71875 244.535156 371.273438 242.089844 376.339844 Z M 330.347656 388.328125 C 329.347656 382.777344 327.375 377.507812 324.476562 372.664062 L 325.945312 371.78125 C 328.949219 376.808594 331 382.269531 332.035156 388.019531 Z M 237.480469 409.59375 C 236.328125 405.402344 235.742188 401.058594 235.742188 396.679688 C 235.742188 395.222656 235.8125 393.757812 235.941406 392.320312 L 237.644531 392.472656 C 237.519531 393.859375 237.457031 395.273438 237.457031 396.679688 C 237.457031 400.90625 238.023438 405.097656 239.128906 409.136719 Z M 329.714844 413.75 L 328.109375 413.144531 C 330.089844 407.890625 331.089844 402.347656 331.089844 396.679688 L 332.800781 396.679688 C 332.800781 402.550781 331.761719 408.300781 329.714844 413.75 Z M 257.535156 437.207031 C 252.660156 433.984375 248.445312 429.949219 245.007812 425.21875 L 246.394531 424.210938 C 249.710938 428.773438 253.773438 432.667969 258.476562 435.777344 Z M 307.269531 439.453125 L 306.457031 437.945312 C 311.414062 435.273438 315.8125 431.761719 319.523438 427.507812 L 320.8125 428.640625 C 316.964844 433.046875 312.402344 436.683594 307.269531 439.453125 Z M 284.277344 445.238281 C 280.628906 445.238281 276.996094 444.832031 273.46875 444.035156 L 273.847656 442.359375 C 279.28125 443.59375 285.042969 443.847656 290.554688 443.109375 L 290.78125 444.808594 C 288.644531 445.09375 286.453125 445.238281 284.277344 445.238281 "/>
<path style=" stroke:none;fill-rule:nonzero;fill:rgb(64.709473%,100%,56.469727%);fill-opacity:1;" d="M 579.265625 219.78125 L 572.804688 214.164062 L 573.925781 212.875 L 580.390625 218.492188 Z M 592.195312 231.019531 L 585.734375 225.402344 L 586.851562 224.109375 L 593.320312 229.730469 Z M 605.121094 242.253906 L 598.660156 236.636719 L 599.785156 235.347656 L 606.246094 240.964844 Z M 618.054688 253.492188 L 611.585938 247.875 L 612.707031 246.578125 L 619.171875 252.195312 Z M 630.976562 264.726562 L 624.515625 259.109375 L 625.632812 257.8125 L 632.101562 263.4375 Z M 640.347656 272.871094 L 637.441406 270.34375 L 638.5625 269.050781 L 641.472656 271.582031 L 640.347656 272.871094 "/>
<path style=" stroke:none;fill-rule:nonzero;fill:rgb(64.709473%,100%,56.469727%);fill-opacity:1;" d="M 741.085938 269 L 738.660156 266.574219 L 760.847656 244.375 L 782.609375 266.144531 L 780.183594 268.570312 L 760.847656 249.222656 L 741.085938 269 "/>
<path style=" stroke:none;fill-rule:nonzero;fill:rgb(64.709473%,100%,56.469727%);fill-opacity:1;" d="M 741.085938 285.539062 L 738.660156 283.121094 L 760.847656 260.917969 L 782.609375 282.691406 L 780.183594 285.117188 L 760.847656 265.761719 L 741.085938 285.539062 "/>
<path style=" stroke:none;fill-rule:nonzero;fill:rgb(64.709473%,100%,56.469727%);fill-opacity:1;" d="M 137.90625 109.675781 L 135.480469 107.253906 L 157.667969 85.054688 L 179.429688 106.824219 L 177.003906 109.25 L 157.667969 89.902344 L 137.90625 109.675781 "/>
<path style=" stroke:none;fill-rule:nonzero;fill:rgb(64.709473%,100%,56.469727%);fill-opacity:1;" d="M 137.90625 126.21875 L 135.480469 123.792969 L 157.667969 101.59375 L 179.429688 123.367188 L 177.003906 125.789062 L 157.667969 106.441406 L 137.90625 126.21875 "/>
<path style=" stroke:none;fill-rule:nonzero;fill:rgb(64.709473%,100%,56.469727%);fill-opacity:1;" d="M 137.90625 142.757812 L 135.480469 140.339844 L 157.667969 118.136719 L 179.429688 139.90625 L 177.003906 142.335938 L 157.667969 122.984375 L 137.90625 142.757812 "/>
<path style=" stroke:none;fill-rule:nonzero;fill:rgb(64.709473%,100%,56.469727%);fill-opacity:1;" d="M 614.53125 167.121094 L 612.113281 164.695312 L 634.300781 142.492188 L 656.054688 164.269531 L 653.636719 166.691406 L 634.300781 147.339844 L 614.53125 167.121094 "/>
<path style=" stroke:none;fill-rule:nonzero;fill:rgb(64.709473%,100%,56.469727%);fill-opacity:1;" d="M 478.25 251.449219 L 467.375 240.5625 L 468.585938 239.351562 L 478.25 249.023438 L 488.136719 239.136719 L 489.347656 240.347656 L 478.25 251.449219 "/>
<path style=" stroke:none;fill-rule:nonzero;fill:rgb(64.709473%,100%,56.469727%);fill-opacity:1;" d="M 478.25 232.316406 L 467.375 221.425781 L 468.585938 220.214844 L 478.25 229.894531 L 488.136719 220 L 489.347656 221.210938 L 478.25 232.316406 "/>
<path style=" stroke:none;fill-rule:nonzero;fill:rgb(64.709473%,100%,56.469727%);fill-opacity:1;" d="M 478.25 222.746094 L 467.375 211.863281 L 468.585938 210.652344 L 478.25 220.324219 L 488.136719 210.4375 L 489.347656 211.648438 L 478.25 222.746094 "/>
<path style=" stroke:none;fill-rule:nonzero;fill:rgb(64.709473%,100%,56.469727%);fill-opacity:1;" d="M 478.25 270.585938 L 467.375 259.695312 L 468.585938 258.488281 L 478.25 268.160156 L 488.136719 258.273438 L 489.347656 259.480469 L 478.25 270.585938 "/>
<path style=" stroke:none;fill-rule:nonzero;fill:rgb(64.709473%,100%,56.469727%);fill-opacity:1;" d="M 478.25 261.015625 L 467.375 250.125 L 468.585938 248.917969 L 478.25 258.59375 L 488.136719 248.699219 L 489.347656 249.910156 L 478.25 261.015625 "/>
<path style=" stroke:none;fill-rule:nonzero;fill:rgb(64.709473%,100%,56.469727%);fill-opacity:1;" d="M 478.25 241.878906 L 467.375 230.996094 L 468.585938 229.785156 L 478.25 239.457031 L 488.136719 229.570312 L 489.347656 230.78125 L 478.25 241.878906 "/>
<path style=" stroke:none;fill-rule:nonzero;fill:rgb(64.709473%,100%,56.469727%);fill-opacity:1;" d="M 141.144531 382.066406 L 130.269531 371.175781 L 131.480469 369.964844 L 141.144531 379.644531 L 151.03125 369.757812 L 152.238281 370.96875 L 141.144531 382.066406 "/>
<path style=" stroke:none;fill-rule:nonzero;fill:rgb(64.709473%,100%,56.469727%);fill-opacity:1;" d="M 141.144531 362.929688 L 130.269531 352.042969 L 131.480469 350.832031 L 141.144531 360.507812 L 151.03125 350.621094 L 152.238281 351.832031 L 141.144531 362.929688 "/>
<path style=" stroke:none;fill-rule:nonzero;fill:rgb(64.709473%,100%,56.469727%);fill-opacity:1;" d="M 141.144531 353.363281 L 130.269531 342.476562 L 131.480469 341.265625 L 141.144531 350.945312 L 151.03125 341.050781 L 152.238281 342.261719 L 141.144531 353.363281 "/>
<path style=" stroke:none;fill-rule:nonzero;fill:rgb(64.709473%,100%,56.469727%);fill-opacity:1;" d="M 141.144531 401.199219 L 130.269531 390.3125 L 131.480469 389.101562 L 141.144531 398.78125 L 151.03125 388.886719 L 152.238281 390.097656 L 141.144531 401.199219 "/>
<path style=" stroke:none;fill-rule:nonzero;fill:rgb(64.709473%,100%,56.469727%);fill-opacity:1;" d="M 141.144531 391.628906 L 130.269531 380.746094 L 131.480469 379.535156 L 141.144531 389.207031 L 151.03125 379.320312 L 152.238281 380.53125 L 141.144531 391.628906 "/>
<path style=" stroke:none;fill-rule:nonzero;fill:rgb(64.709473%,100%,56.469727%);fill-opacity:1;" d="M 141.144531 372.5 L 130.269531 361.613281 L 131.480469 360.402344 L 141.144531 370.074219 L 151.03125 360.1875 L 152.238281 361.398438 L 141.144531 372.5 "/>
<path style=" stroke:none;fill-rule:nonzero;fill:rgb(64.709473%,100%,56.469727%);fill-opacity:1;" d="M 335.820312 212.550781 L 316.949219 212.550781 L 316.949219 210.839844 L 335.820312 210.839844 L 335.820312 212.550781 "/>
<path style=" stroke:none;fill-rule:nonzero;fill:rgb(64.709473%,100%,56.469727%);fill-opacity:1;" d="M 327.234375 221.136719 L 325.523438 221.136719 L 325.523438 202.25 L 327.234375 202.25 L 327.234375 221.136719 "/>
<path style=" stroke:none;fill-rule:nonzero;fill:rgb(64.709473%,100%,56.469727%);fill-opacity:1;" d="M 733.597656 345.441406 L 714.722656 345.441406 L 714.722656 343.726562 L 733.597656 343.726562 L 733.597656 345.441406 "/>
<path style=" stroke:none;fill-rule:nonzero;fill:rgb(64.709473%,100%,56.469727%);fill-opacity:1;" d="M 725.015625 354.027344 L 723.304688 354.027344 L 723.304688 335.140625 L 725.015625 335.140625 L 725.015625 354.027344 "/>
<path style=" stroke:none;fill-rule:nonzero;fill:rgb(64.709473%,100%,56.469727%);fill-opacity:1;" d="M 251.054688 294.183594 L 232.1875 294.183594 L 232.1875 292.46875 L 251.054688 292.46875 L 251.054688 294.183594 "/>
<path style=" stroke:none;fill-rule:nonzero;fill:rgb(64.709473%,100%,56.469727%);fill-opacity:1;" d="M 242.476562 302.765625 L 240.761719 302.765625 L 240.761719 283.882812 L 242.476562 283.882812 L 242.476562 302.765625 "/>
<path style=" stroke:none;fill-rule:nonzero;fill:rgb(64.709473%,100%,56.469727%);fill-opacity:1;" d="M 681.390625 432.289062 L 662.515625 432.289062 L 662.515625 430.574219 L 681.390625 430.574219 L 681.390625 432.289062 "/>
<path style=" stroke:none;fill-rule:nonzero;fill:rgb(64.709473%,100%,56.469727%);fill-opacity:1;" d="M 672.808594 440.867188 L 671.097656 440.867188 L 671.097656 421.988281 L 672.808594 421.988281 L 672.808594 440.867188 "/>
<path style=" stroke:none;fill-rule:nonzero;fill:rgb(64.709473%,100%,56.469727%);fill-opacity:1;" d="M 230.355469 505.8125 L 211.484375 505.8125 L 211.484375 504.09375 L 230.355469 504.09375 L 230.355469 505.8125 "/>
<path style=" stroke:none;fill-rule:nonzero;fill:rgb(64.709473%,100%,56.469727%);fill-opacity:1;" d="M 221.777344 514.394531 L 220.0625 514.394531 L 220.0625 495.511719 L 221.777344 495.511719 L 221.777344 514.394531 "/>
<path style=" stroke:none;fill-rule:nonzero;fill:rgb(64.709473%,100%,56.469727%);fill-opacity:1;" d="M 111.363281 336 L 92.488281 336 L 92.488281 334.285156 L 111.363281 334.285156 L 111.363281 336 "/>
<path style=" stroke:none;fill-rule:nonzero;fill:rgb(64.709473%,100%,56.469727%);fill-opacity:1;" d="M 102.78125 344.585938 L 101.066406 344.585938 L 101.066406 325.699219 L 102.78125 325.699219 L 102.78125 344.585938 "/>
<path style=" stroke:none;fill-rule:nonzero;fill:rgb(64.709473%,100%,56.469727%);fill-opacity:1;" d="M 590.0625 104.871094 L 571.195312 104.871094 L 571.195312 103.160156 L 590.0625 103.160156 L 590.0625 104.871094 "/>
<path style=" stroke:none;fill-rule:nonzero;fill:rgb(64.709473%,100%,56.469727%);fill-opacity:1;" d="M 581.488281 113.460938 L 579.777344 113.460938 L 579.777344 94.578125 L 581.488281 94.578125 L 581.488281 113.460938 "/>
<path style=" stroke:none;fill-rule:nonzero;fill:rgb(64.709473%,100%,56.469727%);fill-opacity:1;" d="M 703.621094 212.550781 L 684.746094 212.550781 L 684.746094 210.839844 L 703.621094 210.839844 L 703.621094 212.550781 "/>
<path style=" stroke:none;fill-rule:nonzero;fill:rgb(64.709473%,100%,56.469727%);fill-opacity:1;" d="M 695.039062 221.136719 L 693.328125 221.136719 L 693.328125 202.25 L 695.039062 202.25 L 695.039062 221.136719 "/>
<path style=" stroke:none;fill-rule:nonzero;fill:rgb(64.709473%,100%,56.469727%);fill-opacity:1;" d="M 547.195312 442.128906 L 545.480469 442.128906 L 545.480469 324.875 L 526.121094 305.5 L 526.121094 226.082031 L 527.835938 226.082031 L 527.835938 304.789062 L 547.195312 324.160156 L 547.195312 442.128906 "/>
<path style=" stroke:none;fill-rule:nonzero;fill:rgb(64.709473%,100%,56.469727%);fill-opacity:1;" d="M 546.933594 314.8125 L 531.832031 299.699219 L 531.832031 242.875 L 533.542969 242.875 L 533.542969 298.984375 L 545.222656 310.671875 L 545.222656 273.835938 L 546.933594 273.835938 L 546.933594 314.8125 "/>
<path style=" stroke:none;fill-rule:nonzero;fill:rgb(64.709473%,100%,56.469727%);fill-opacity:1;" d="M 508.945312 530.65625 L 507.230469 530.65625 L 507.230469 401.167969 L 507.488281 400.917969 L 537.433594 370.949219 L 537.433594 327.3125 L 526.371094 316.242188 L 527.582031 315.03125 L 539.144531 326.597656 L 539.144531 371.65625 L 508.945312 401.878906 L 508.945312 530.65625 "/>
<path style=" stroke:none;fill-rule:nonzero;fill:rgb(64.709473%,100%,56.469727%);fill-opacity:1;" d="M 546.339844 442.140625 C 543.859375 442.140625 541.84375 444.160156 541.84375 446.636719 C 541.84375 449.121094 543.859375 451.140625 546.339844 451.140625 C 548.816406 451.140625 550.835938 449.121094 550.835938 446.636719 C 550.835938 444.160156 548.816406 442.140625 546.339844 442.140625 Z M 546.339844 452.851562 C 542.914062 452.851562 540.128906 450.066406 540.128906 446.636719 C 540.128906 443.214844 542.914062 440.425781 546.339844 440.425781 C 549.761719 440.425781 552.546875 443.214844 552.546875 446.636719 C 552.546875 450.066406 549.761719 452.851562 546.339844 452.851562 "/>
<path style=" stroke:none;fill-rule:nonzero;fill:rgb(64.709473%,100%,56.469727%);fill-opacity:1;" d="M 380.867188 472.988281 C 378.390625 472.988281 376.371094 475.007812 376.371094 477.488281 C 376.371094 479.96875 378.390625 481.984375 380.867188 481.984375 C 383.339844 481.984375 385.359375 479.96875 385.359375 477.488281 C 385.359375 475.007812 383.339844 472.988281 380.867188 472.988281 Z M 380.867188 483.695312 C 377.441406 483.695312 374.660156 480.914062 374.660156 477.488281 C 374.660156 474.066406 377.441406 471.277344 380.867188 471.277344 C 384.285156 471.277344 387.070312 474.066406 387.070312 477.488281 C 387.070312 480.914062 384.285156 483.695312 380.867188 483.695312 "/>
<path style=" stroke:none;fill-rule:nonzero;fill:rgb(64.709473%,100%,56.469727%);fill-opacity:1;" d="M 526.976562 217.039062 C 524.5 217.039062 522.488281 219.054688 522.488281 221.535156 C 522.488281 224.015625 524.5 226.035156 526.976562 226.035156 C 529.457031 226.035156 531.476562 224.015625 531.476562 221.535156 C 531.476562 219.054688 529.457031 217.039062 526.976562 217.039062 Z M 526.976562 227.746094 C 523.554688 227.746094 520.769531 224.960938 520.769531 221.535156 C 520.769531 218.113281 523.554688 215.324219 526.976562 215.324219 C 530.402344 215.324219 533.1875 218.113281 533.1875 221.535156 C 533.1875 224.960938 530.402344 227.746094 526.976562 227.746094 "/>
<path style=" stroke:none;fill-rule:nonzero;fill:rgb(64.709473%,100%,56.469727%);fill-opacity:1;" d="M 426.527344 283.476562 C 424.042969 283.476562 422.03125 285.488281 422.03125 287.96875 C 422.03125 290.449219 424.042969 292.46875 426.527344 292.46875 C 429 292.46875 431.019531 290.449219 431.019531 287.96875 C 431.019531 285.488281 429 283.476562 426.527344 283.476562 Z M 426.527344 294.183594 C 423.101562 294.183594 420.320312 291.394531 420.320312 287.96875 C 420.320312 284.546875 423.101562 281.757812 426.527344 281.757812 C 429.945312 281.757812 432.734375 284.546875 432.734375 287.96875 C 432.734375 291.394531 429.945312 294.183594 426.527344 294.183594 "/>
<path style=" stroke:none;fill-rule:nonzero;fill:rgb(64.709473%,100%,56.469727%);fill-opacity:1;" d="M 408.464844 320.152344 C 405.992188 320.152344 403.972656 322.164062 403.972656 324.648438 C 403.972656 327.125 405.992188 329.144531 408.464844 329.144531 C 410.949219 329.144531 412.960938 327.125 412.960938 324.648438 C 412.960938 322.164062 410.949219 320.152344 408.464844 320.152344 Z M 408.464844 330.859375 C 405.046875 330.859375 402.261719 328.074219 402.261719 324.648438 C 402.261719 321.21875 405.046875 318.4375 408.464844 318.4375 C 411.890625 318.4375 414.671875 321.21875 414.671875 324.648438 C 414.671875 328.074219 411.890625 330.859375 408.464844 330.859375 "/>
<path style=" stroke:none;fill-rule:nonzero;fill:rgb(64.709473%,100%,56.469727%);fill-opacity:1;" d="M 546.074219 263.289062 C 543.601562 263.289062 541.582031 265.308594 541.582031 267.785156 C 541.582031 270.269531 543.601562 272.28125 546.074219 272.28125 C 548.558594 272.28125 550.570312 270.269531 550.570312 267.785156 C 550.570312 265.308594 548.558594 263.289062 546.074219 263.289062 Z M 546.074219 274 C 542.65625 274 539.871094 271.214844 539.871094 267.785156 C 539.871094 264.363281 542.65625 261.574219 546.074219 261.574219 C 549.5 261.574219 552.28125 264.363281 552.28125 267.785156 C 552.28125 271.214844 549.5 274 546.074219 274 "/>
<g clip-path="url(#clip2)" clip-rule="nonzero">
<path style=" stroke:none;fill-rule:nonzero;fill:rgb(64.709473%,100%,56.469727%);fill-opacity:1;" d="M 508.089844 531.515625 C 505.609375 531.515625 503.597656 533.527344 503.597656 536.007812 C 503.597656 538.488281 505.609375 540.507812 508.089844 540.507812 C 510.566406 540.507812 512.585938 538.488281 512.585938 536.007812 C 512.585938 533.527344 510.566406 531.515625 508.089844 531.515625 Z M 508.089844 542.222656 C 504.664062 542.222656 501.882812 539.433594 501.882812 536.007812 C 501.882812 532.585938 504.664062 529.796875 508.089844 529.796875 C 511.515625 529.796875 514.296875 532.585938 514.296875 536.007812 C 514.296875 539.433594 511.515625 542.222656 508.089844 542.222656 "/>
</g>
<path style=" stroke:none;fill-rule:nonzero;fill:rgb(64.709473%,100%,56.469727%);fill-opacity:1;" d="M 532.683594 349.03125 L 523.1875 349.03125 L 523.1875 347.320312 L 532.683594 347.320312 L 532.683594 349.03125 "/>
<path style=" stroke:none;fill-rule:nonzero;fill:rgb(64.709473%,100%,56.469727%);fill-opacity:1;" d="M 532.683594 352.460938 L 523.1875 352.460938 L 523.1875 350.746094 L 532.683594 350.746094 L 532.683594 352.460938 "/>
<path style=" stroke:none;fill-rule:nonzero;fill:rgb(64.709473%,100%,56.469727%);fill-opacity:1;" d="M 532.683594 355.886719 L 523.1875 355.886719 L 523.1875 354.175781 L 532.683594 354.175781 L 532.683594 355.886719 "/>
<path style=" stroke:none;fill-rule:nonzero;fill:rgb(64.709473%,100%,56.469727%);fill-opacity:1;" d="M 395.132812 381.042969 L 393.417969 381.042969 L 393.417969 371.539062 L 395.132812 371.539062 L 395.132812 381.042969 "/>
<path style=" stroke:none;fill-rule:nonzero;fill:rgb(64.709473%,100%,56.469727%);fill-opacity:1;" d="M 391.710938 381.042969 L 389.996094 381.042969 L 389.996094 371.539062 L 391.710938 371.539062 L 391.710938 381.042969 "/>
<path style=" stroke:none;fill-rule:nonzero;fill:rgb(64.709473%,100%,56.469727%);fill-opacity:1;" d="M 388.28125 381.042969 L 386.570312 381.042969 L 386.570312 371.539062 L 388.28125 371.539062 L 388.28125 381.042969 "/>
<path style=" stroke:none;fill-rule:nonzero;fill:rgb(64.709473%,100%,56.469727%);fill-opacity:1;" d="M 416.171875 446.878906 L 414.457031 446.878906 L 414.457031 437.378906 L 416.171875 437.378906 L 416.171875 446.878906 "/>
<path style=" stroke:none;fill-rule:nonzero;fill:rgb(64.709473%,100%,56.469727%);fill-opacity:1;" d="M 412.75 446.878906 L 411.039062 446.878906 L 411.039062 437.378906 L 412.75 437.378906 L 412.75 446.878906 "/>
<path style=" stroke:none;fill-rule:nonzero;fill:rgb(64.709473%,100%,56.469727%);fill-opacity:1;" d="M 409.324219 446.878906 L 407.613281 446.878906 L 407.613281 437.378906 L 409.324219 437.378906 L 409.324219 446.878906 "/>
<path style=" stroke:none;fill-rule:nonzero;fill:rgb(64.709473%,100%,56.469727%);fill-opacity:1;" d="M 421.386719 156.273438 L 411.890625 156.273438 L 411.890625 154.558594 L 421.386719 154.558594 L 421.386719 156.273438 "/>
<path style=" stroke:none;fill-rule:nonzero;fill:rgb(64.709473%,100%,56.469727%);fill-opacity:1;" d="M 421.386719 159.699219 L 411.890625 159.699219 L 411.890625 157.984375 L 421.386719 157.984375 L 421.386719 159.699219 "/>
<path style=" stroke:none;fill-rule:nonzero;fill:rgb(64.709473%,100%,56.469727%);fill-opacity:1;" d="M 421.386719 163.121094 L 411.890625 163.121094 L 411.890625 161.40625 L 421.386719 161.40625 L 421.386719 163.121094 "/>
<path style=" stroke:none;fill-rule:nonzero;fill:rgb(64.709473%,100%,56.469727%);fill-opacity:1;" d="M 650.472656 331.59375 L 617.699219 331.59375 L 617.699219 328.410156 L 650.472656 328.410156 L 650.472656 331.59375 "/>
<path style=" stroke:none;fill-rule:nonzero;fill:rgb(64.709473%,100%,56.469727%);fill-opacity:1;" d="M 650.472656 336.734375 L 617.699219 336.734375 L 617.699219 333.550781 L 650.472656 333.550781 L 650.472656 336.734375 "/>
<path style=" stroke:none;fill-rule:nonzero;fill:rgb(64.709473%,100%,56.469727%);fill-opacity:1;" d="M 650.472656 341.878906 L 617.699219 341.878906 L 617.699219 338.691406 L 650.472656 338.691406 L 650.472656 341.878906 "/>
<path style=" stroke:none;fill-rule:nonzero;fill:rgb(64.709473%,100%,56.469727%);fill-opacity:1;" d="M 740.542969 151.867188 L 707.769531 151.867188 L 707.769531 148.679688 L 740.542969 148.679688 L 740.542969 151.867188 "/>
<path style=" stroke:none;fill-rule:nonzero;fill:rgb(64.709473%,100%,56.469727%);fill-opacity:1;" d="M 740.542969 157.007812 L 707.769531 157.007812 L 707.769531 153.824219 L 740.542969 153.824219 L 740.542969 157.007812 "/>
<path style=" stroke:none;fill-rule:nonzero;fill:rgb(64.709473%,100%,56.469727%);fill-opacity:1;" d="M 740.542969 162.148438 L 707.769531 162.148438 L 707.769531 158.957031 L 740.542969 158.957031 L 740.542969 162.148438 "/>
<path style=" stroke:none;fill-rule:nonzero;fill:rgb(64.709473%,100%,56.469727%);fill-opacity:1;" d="M 60.671875 372.414062 L 27.898438 372.414062 L 27.898438 369.230469 L 60.671875 369.230469 L 60.671875 372.414062 "/>
<path style=" stroke:none;fill-rule:nonzero;fill:rgb(64.709473%,100%,56.469727%);fill-opacity:1;" d="M 60.671875 377.558594 L 27.898438 377.558594 L 27.898438 374.371094 L 60.671875 374.371094 L 60.671875 377.558594 "/>
<path style=" stroke:none;fill-rule:nonzero;fill:rgb(64.709473%,100%,56.469727%);fill-opacity:1;" d="M 60.671875 382.699219 L 27.898438 382.699219 L 27.898438 379.515625 L 60.671875 379.515625 L 60.671875 382.699219 "/>
<path style=" stroke:none;fill-rule:nonzero;fill:rgb(64.709473%,100%,56.469727%);fill-opacity:1;" d="M 172.539062 232.851562 L 163.042969 232.851562 L 163.042969 231.136719 L 172.539062 231.136719 L 172.539062 232.851562 "/>
<path style=" stroke:none;fill-rule:nonzero;fill:rgb(64.709473%,100%,56.469727%);fill-opacity:1;" d="M 172.539062 236.28125 L 163.042969 236.28125 L 163.042969 234.566406 L 172.539062 234.566406 L 172.539062 236.28125 "/>
<path style=" stroke:none;fill-rule:nonzero;fill:rgb(64.709473%,100%,56.469727%);fill-opacity:1;" d="M 172.539062 239.707031 L 163.042969 239.707031 L 163.042969 237.992188 L 172.539062 237.992188 L 172.539062 239.707031 "/>
<path style=" stroke:none;fill-rule:nonzero;fill:rgb(64.709473%,100%,56.469727%);fill-opacity:1;" d="M 765.378906 455.550781 L 755.882812 455.550781 L 755.882812 453.835938 L 765.378906 453.835938 L 765.378906 455.550781 "/>
<path style=" stroke:none;fill-rule:nonzero;fill:rgb(64.709473%,100%,56.469727%);fill-opacity:1;" d="M 765.378906 458.972656 L 755.882812 458.972656 L 755.882812 457.257812 L 765.378906 457.257812 L 765.378906 458.972656 "/>
<path style=" stroke:none;fill-rule:nonzero;fill:rgb(64.709473%,100%,56.469727%);fill-opacity:1;" d="M 765.378906 462.402344 L 755.882812 462.402344 L 755.882812 460.6875 L 765.378906 460.6875 L 765.378906 462.402344 "/>
<path style=" stroke:none;fill-rule:nonzero;fill:rgb(64.709473%,100%,56.469727%);fill-opacity:1;" d="M 187.710938 434.804688 L 178.214844 434.804688 L 178.214844 433.089844 L 187.710938 433.089844 L 187.710938 434.804688 "/>
<path style=" stroke:none;fill-rule:nonzero;fill:rgb(64.709473%,100%,56.469727%);fill-opacity:1;" d="M 187.710938 438.230469 L 178.214844 438.230469 L 178.214844 436.519531 L 187.710938 436.519531 L 187.710938 438.230469 "/>
<path style=" stroke:none;fill-rule:nonzero;fill:rgb(64.709473%,100%,56.469727%);fill-opacity:1;" d="M 187.710938 441.660156 L 178.214844 441.660156 L 178.214844 439.945312 L 187.710938 439.945312 L 187.710938 441.660156 "/>
<path style=" stroke:none;fill-rule:nonzero;fill:rgb(64.709473%,100%,56.469727%);fill-opacity:1;" d="M 523.1875 498.957031 L 513.691406 498.957031 L 513.691406 497.242188 L 523.1875 497.242188 L 523.1875 498.957031 "/>
<path style=" stroke:none;fill-rule:nonzero;fill:rgb(64.709473%,100%,56.469727%);fill-opacity:1;" d="M 523.1875 502.386719 L 513.691406 502.386719 L 513.691406 500.671875 L 523.1875 500.671875 L 523.1875 502.386719 "/>
<path style=" stroke:none;fill-rule:nonzero;fill:rgb(64.709473%,100%,56.469727%);fill-opacity:1;" d="M 523.1875 505.8125 L 513.691406 505.8125 L 513.691406 504.09375 L 523.1875 504.09375 L 523.1875 505.8125 "/>
<path style=" stroke:none;fill-rule:nonzero;fill:rgb(64.709473%,100%,56.469727%);fill-opacity:1;" d="M 536.027344 243.730469 L 529.34375 243.730469 L 529.34375 242.015625 L 536.027344 242.015625 L 536.027344 243.730469 "/>
<path style=" stroke:none;fill-rule:nonzero;fill:rgb(64.709473%,100%,56.469727%);fill-opacity:1;" d="M 376.558594 458.972656 L 369.878906 458.972656 L 369.878906 457.257812 L 376.558594 457.257812 L 376.558594 458.972656 "/>
<path style=" stroke:none;fill-rule:nonzero;fill:rgb(64.709473%,100%,56.469727%);fill-opacity:1;" d="M 525.21875 318.605469 L 524.007812 317.398438 L 528.734375 312.667969 L 529.945312 313.878906 L 525.21875 318.605469 "/>
<path style=" stroke:none;fill-rule:nonzero;fill:rgb(64.709473%,100%,56.469727%);fill-opacity:1;" d="M 374.078125 458.121094 L 372.363281 458.121094 L 372.363281 361.019531 L 372.613281 360.761719 L 405.375 327.980469 L 406.585938 329.191406 L 374.078125 361.726562 L 374.078125 458.121094 "/>
<path style=" stroke:none;fill-rule:nonzero;fill:rgb(64.709473%,100%,56.469727%);fill-opacity:1;" d="M 381.71875 471.824219 L 380.011719 471.824219 L 380.011719 392.496094 L 425.667969 392.496094 L 425.667969 293.628906 L 427.378906 293.628906 L 427.378906 394.210938 L 381.71875 394.210938 L 381.71875 471.824219 "/>
<path style=" stroke:none;fill-rule:nonzero;fill:rgb(64.709473%,100%,56.469727%);fill-opacity:1;" d="M 416.640625 403.003906 L 389.597656 403.003906 L 389.597656 401.289062 L 416.640625 401.289062 L 416.640625 403.003906 "/>
<path style=" stroke:none;fill-rule:nonzero;fill:rgb(64.709473%,100%,56.469727%);fill-opacity:1;" d="M 403.972656 446.636719 L 402.265625 446.636719 L 402.265625 402.144531 L 403.972656 402.144531 L 403.972656 446.636719 "/>
<path style=" stroke:none;fill-rule:nonzero;fill:rgb(64.709473%,100%,56.469727%);fill-opacity:1;" d="M 284.964844 198.726562 C 282.484375 198.726562 280.472656 200.742188 280.472656 203.222656 C 280.472656 205.707031 282.484375 207.722656 284.964844 207.722656 C 287.441406 207.722656 289.460938 205.707031 289.460938 203.222656 C 289.460938 200.742188 287.441406 198.726562 284.964844 198.726562 Z M 284.964844 209.433594 C 281.539062 209.433594 278.757812 206.648438 278.757812 203.222656 C 278.757812 199.800781 281.539062 197.015625 284.964844 197.015625 C 288.386719 197.015625 291.171875 199.800781 291.171875 203.222656 C 291.171875 206.648438 288.386719 209.433594 284.964844 209.433594 "/>
<g clip-path="url(#clip3)" clip-rule="nonzero">
<path style=" stroke:none;fill-rule:nonzero;fill:rgb(64.709473%,100%,56.469727%);fill-opacity:1;" d="M 330.625 9.207031 C 328.144531 9.207031 326.132812 11.226562 326.132812 13.703125 C 326.132812 16.1875 328.144531 18.203125 330.625 18.203125 C 333.101562 18.203125 335.121094 16.1875 335.121094 13.703125 C 335.121094 11.226562 333.101562 9.207031 330.625 9.207031 Z M 330.625 19.914062 C 327.199219 19.914062 324.417969 17.132812 324.417969 13.703125 C 324.417969 10.28125 327.199219 7.496094 330.625 7.496094 C 334.046875 7.496094 336.832031 10.28125 336.832031 13.703125 C 336.832031 17.132812 334.046875 19.914062 330.625 19.914062 "/>
</g>
<path style=" stroke:none;fill-rule:nonzero;fill:rgb(64.709473%,100%,56.469727%);fill-opacity:1;" d="M 312.566406 45.890625 C 310.089844 45.890625 308.074219 47.902344 308.074219 50.386719 C 308.074219 52.863281 310.089844 54.882812 312.566406 54.882812 C 315.046875 54.882812 317.058594 52.863281 317.058594 50.386719 C 317.058594 47.902344 315.046875 45.890625 312.566406 45.890625 Z M 312.566406 56.597656 C 309.148438 56.597656 306.359375 53.808594 306.359375 50.386719 C 306.359375 46.957031 309.148438 44.175781 312.566406 44.175781 C 315.992188 44.175781 318.773438 46.957031 318.773438 50.386719 C 318.773438 53.808594 315.992188 56.597656 312.566406 56.597656 "/>
<path style=" stroke:none;fill-rule:nonzero;fill:rgb(64.709473%,100%,56.469727%);fill-opacity:1;" d="M 319.480469 92.472656 L 317.765625 92.472656 L 317.765625 82.964844 L 319.480469 82.964844 L 319.480469 92.472656 "/>
<path style=" stroke:none;fill-rule:nonzero;fill:rgb(64.709473%,100%,56.469727%);fill-opacity:1;" d="M 316.054688 92.472656 L 314.339844 92.472656 L 314.339844 82.964844 L 316.054688 82.964844 L 316.054688 92.472656 "/>
<path style=" stroke:none;fill-rule:nonzero;fill:rgb(64.709473%,100%,56.469727%);fill-opacity:1;" d="M 312.628906 92.472656 L 310.921875 92.472656 L 310.921875 82.964844 L 312.628906 82.964844 L 312.628906 92.472656 "/>
<path style=" stroke:none;fill-rule:nonzero;fill:rgb(64.709473%,100%,56.469727%);fill-opacity:1;" d="M 280.660156 184.71875 L 273.976562 184.71875 L 273.976562 182.996094 L 280.660156 182.996094 L 280.660156 184.71875 "/>
<path style=" stroke:none;fill-rule:nonzero;fill:rgb(64.709473%,100%,56.469727%);fill-opacity:1;" d="M 278.175781 183.855469 L 276.457031 183.855469 L 276.457031 86.75 L 276.714844 86.5 L 309.476562 53.722656 L 310.683594 54.933594 L 278.175781 87.464844 L 278.175781 183.855469 "/>
<path style=" stroke:none;fill-rule:nonzero;fill:rgb(64.709473%,100%,56.469727%);fill-opacity:1;" d="M 285.820312 197.5625 L 284.105469 197.5625 L 284.105469 118.234375 L 329.765625 118.234375 L 329.765625 19.367188 L 331.480469 19.367188 L 331.480469 119.945312 L 285.820312 119.945312 L 285.820312 197.5625 "/>
</g>
</svg>
