<?xml version="1.0" encoding="UTF-8"?>
<svg xmlns="http://www.w3.org/2000/svg" xmlns:xlink="http://www.w3.org/1999/xlink" width="810pt" height="809.999993pt" viewBox="0 0 810 809.999993" version="1.2">
<defs>
<clipPath id="clip1">
  <path d="M 20.0625 121 L 789.5625 121 L 789.5625 779 L 20.0625 779 Z M 20.0625 121 "/>
</clipPath>
<clipPath id="clip2">
  <path d="M 43 31.261719 L 767 31.261719 L 767 756 L 43 756 Z M 43 31.261719 "/>
</clipPath>
</defs>
<g id="surface1">
<g clip-path="url(#clip1)" clip-rule="nonzero">
<path style=" stroke:none;fill-rule:nonzero;fill:rgb(64.709473%,100%,56.469727%);fill-opacity:1;" d="M 677.117188 665.574219 C 749.480469 592.992188 789.5625 496.371094 789.5625 393.507812 L 778.800781 393.507812 C 778.800781 493.40625 739.96875 587.371094 669.476562 657.925781 C 598.980469 728.480469 504.625 767.8125 404.8125 767.8125 C 305 767.8125 210.957031 728.945312 140.464844 658.238281 C 69.8125 587.527344 30.824219 493.5625 30.824219 393.507812 C 30.824219 293.609375 69.65625 199.488281 140.308594 128.933594 L 132.664062 121.285156 C 60.144531 194.023438 20.0625 290.644531 20.0625 393.507812 C 20.0625 496.371094 60.144531 593.148438 132.820312 665.886719 C 205.5 738.625 302.035156 778.585938 404.8125 778.585938 C 507.433594 778.585938 604.285156 738.15625 676.960938 665.730469 C 676.960938 665.730469 676.960938 665.730469 677.117188 665.574219 Z M 677.117188 665.574219 "/>
</g>
<g clip-path="url(#clip2)" clip-rule="nonzero">
<path style=" stroke:none;fill-rule:nonzero;fill:rgb(64.709473%,100%,56.469727%);fill-opacity:1;" d="M 149.195312 649.496094 C 149.351562 649.652344 149.351562 649.652344 149.351562 649.652344 C 217.664062 717.863281 308.273438 755.484375 404.8125 755.484375 C 501.351562 755.484375 592.121094 717.863281 660.429688 649.496094 C 728.738281 581.128906 766.324219 490.285156 766.324219 393.664062 L 747.609375 393.664062 C 747.609375 485.132812 711.894531 571.296875 647.171875 636.230469 C 582.449219 701.007812 496.359375 736.75 404.8125 736.75 C 313.265625 736.59375 227.175781 701.007812 162.609375 636.230469 C 97.886719 571.453125 62.015625 484.976562 62.015625 393.507812 C 62.015625 301.882812 97.730469 215.71875 162.453125 150.941406 C 227.175781 86.164062 313.265625 50.417969 404.8125 50.417969 C 496.359375 50.417969 582.449219 86.320312 647.171875 150.941406 C 711.894531 215.71875 747.609375 301.882812 747.609375 393.507812 L 766.324219 393.507812 C 766.324219 297.042969 728.894531 206.199219 660.585938 137.832031 C 660.585938 137.832031 660.585938 137.832031 660.429688 137.675781 C 660.429688 137.675781 660.429688 137.675781 660.273438 137.519531 C 592.277344 69.460938 501.195312 31.6875 404.8125 31.6875 C 308.273438 31.6875 217.507812 69.308594 149.195312 137.675781 C 80.886719 206.042969 43.300781 296.886719 43.300781 393.507812 C 43.300781 489.972656 81.042969 581.128906 149.195312 649.496094 Z M 149.195312 649.496094 "/>
</g>
<path style=" stroke:none;fill-rule:nonzero;fill:rgb(64.709473%,100%,56.469727%);fill-opacity:1;" d="M 118.472656 245.222656 C 119.566406 245.222656 120.5 244.597656 120.96875 243.660156 C 121.90625 241.945312 122.683594 240.382812 123.621094 238.664062 C 124.398438 237.261719 123.933594 235.542969 122.527344 234.761719 C 121.125 233.984375 119.410156 234.449219 118.628906 235.855469 C 117.695312 237.574219 116.757812 239.289062 115.820312 241.007812 C 115.042969 242.410156 115.664062 244.128906 117.070312 244.910156 C 117.539062 245.066406 118.003906 245.222656 118.472656 245.222656 Z M 118.472656 245.222656 "/>
<path style=" stroke:none;fill-rule:nonzero;fill:rgb(64.709473%,100%,56.469727%);fill-opacity:1;" d="M 106.152344 271.132812 C 107.246094 271.132812 108.335938 270.507812 108.804688 269.414062 C 109.582031 267.699219 110.363281 265.980469 110.988281 264.109375 C 111.609375 262.703125 110.988281 260.988281 109.582031 260.363281 C 108.179688 259.738281 106.464844 260.363281 105.839844 261.765625 C 105.0625 263.484375 104.28125 265.355469 103.5 267.074219 C 102.878906 268.636719 103.5 270.351562 105.0625 270.976562 C 105.371094 271.132812 105.839844 271.132812 106.152344 271.132812 Z M 106.152344 271.132812 "/>
<path style=" stroke:none;fill-rule:nonzero;fill:rgb(64.709473%,100%,56.469727%);fill-opacity:1;" d="M 132.820312 220.402344 C 133.757812 220.402344 134.691406 219.933594 135.160156 219.152344 C 136.253906 217.59375 137.1875 216.03125 138.28125 214.472656 C 139.214844 213.222656 138.746094 211.347656 137.5 210.414062 C 136.253906 209.476562 134.382812 209.945312 133.445312 211.195312 C 132.355469 212.753906 131.261719 214.472656 130.324219 216.03125 C 129.546875 217.28125 130.015625 219.152344 131.261719 219.933594 C 131.730469 220.246094 132.355469 220.402344 132.820312 220.402344 Z M 132.820312 220.402344 "/>
<path style=" stroke:none;fill-rule:nonzero;fill:rgb(64.709473%,100%,56.469727%);fill-opacity:1;" d="M 81.667969 344.964844 C 81.355469 346.835938 81.042969 348.710938 80.886719 350.738281 C 80.730469 352.300781 81.824219 353.703125 83.382812 354.015625 C 83.539062 354.015625 83.695312 354.015625 83.695312 354.015625 C 85.097656 354.015625 86.347656 352.925781 86.5 351.519531 C 86.8125 349.644531 86.96875 347.773438 87.28125 345.898438 C 87.59375 344.339844 86.5 342.777344 84.941406 342.621094 C 83.382812 342.464844 81.980469 343.402344 81.667969 344.964844 Z M 81.667969 344.964844 "/>
<path style=" stroke:none;fill-rule:nonzero;fill:rgb(64.709473%,100%,56.469727%);fill-opacity:1;" d="M 78.859375 373.683594 C 78.703125 375.558594 78.703125 377.585938 78.546875 379.460938 C 78.546875 381.019531 79.640625 382.425781 81.355469 382.425781 L 81.511719 382.425781 C 83.070312 382.425781 84.316406 381.175781 84.316406 379.617188 C 84.472656 377.742188 84.472656 375.871094 84.628906 373.996094 C 84.472656 372.433594 83.382812 371.1875 81.824219 371.03125 C 80.261719 370.875 78.859375 372.125 78.859375 373.683594 Z M 78.859375 373.683594 "/>
<path style=" stroke:none;fill-rule:nonzero;fill:rgb(64.709473%,100%,56.469727%);fill-opacity:1;" d="M 508.835938 89.597656 C 510.710938 90.222656 512.425781 90.847656 514.140625 91.472656 C 514.453125 91.628906 514.765625 91.628906 515.074219 91.628906 C 516.324219 91.628906 517.414062 90.847656 517.726562 89.753906 C 518.195312 88.195312 517.570312 86.632812 516.011719 86.007812 C 514.140625 85.382812 512.425781 84.757812 510.554688 84.136719 C 508.992188 83.667969 507.433594 84.449219 506.964844 85.851562 C 506.5 87.570312 507.277344 89.128906 508.835938 89.597656 Z M 508.835938 89.597656 "/>
<path style=" stroke:none;fill-rule:nonzero;fill:rgb(64.709473%,100%,56.469727%);fill-opacity:1;" d="M 151.847656 196.050781 C 152.941406 194.492188 154.1875 193.085938 155.433594 191.527344 C 156.371094 190.277344 156.214844 188.558594 154.96875 187.46875 C 153.71875 186.53125 152.003906 186.6875 150.914062 187.9375 C 149.664062 189.496094 148.574219 190.902344 147.324219 192.460938 C 146.234375 193.710938 146.546875 195.429688 147.792969 196.519531 C 148.261719 196.988281 148.886719 197.144531 149.507812 197.144531 C 150.289062 197.144531 151.222656 196.832031 151.847656 196.050781 Z M 151.847656 196.050781 "/>
<path style=" stroke:none;fill-rule:nonzero;fill:rgb(64.709473%,100%,56.469727%);fill-opacity:1;" d="M 170.09375 174.355469 C 171.34375 172.949219 172.746094 171.546875 173.996094 170.296875 C 175.085938 169.203125 175.085938 167.332031 173.996094 166.238281 C 172.902344 165.148438 171.03125 165.148438 169.941406 166.238281 C 168.535156 167.644531 167.289062 169.050781 165.882812 170.453125 C 164.792969 171.546875 164.792969 173.417969 166.039062 174.511719 C 166.664062 174.980469 167.445312 175.292969 168.066406 175.292969 C 168.847656 175.292969 169.628906 174.980469 170.09375 174.355469 Z M 170.09375 174.355469 "/>
<path style=" stroke:none;fill-rule:nonzero;fill:rgb(64.709473%,100%,56.469727%);fill-opacity:1;" d="M 93.675781 493.5625 C 93.988281 494.8125 95.234375 495.589844 96.484375 495.589844 C 96.796875 495.589844 97.105469 495.589844 97.417969 495.433594 C 98.976562 494.96875 99.757812 493.40625 99.289062 491.84375 C 98.511719 489.972656 98.042969 488.253906 97.417969 486.382812 C 96.949219 484.820312 95.390625 484.039062 93.832031 484.507812 C 92.273438 484.976562 91.492188 486.539062 91.960938 488.097656 C 92.585938 489.972656 93.050781 491.84375 93.675781 493.5625 Z M 93.675781 493.5625 "/>
<path style=" stroke:none;fill-rule:nonzero;fill:rgb(64.709473%,100%,56.469727%);fill-opacity:1;" d="M 88.21875 325.765625 C 88.375 325.765625 88.683594 325.765625 88.839844 325.765625 C 90.089844 325.765625 91.335938 324.828125 91.648438 323.578125 C 92.117188 321.707031 92.429688 319.832031 92.894531 318.117188 C 93.207031 316.398438 92.273438 314.835938 90.710938 314.527344 C 89.152344 314.214844 87.59375 315.148438 87.28125 316.710938 C 86.8125 318.585938 86.347656 320.457031 86.035156 322.332031 C 85.722656 323.890625 86.65625 325.453125 88.21875 325.765625 Z M 88.21875 325.765625 "/>
<path style=" stroke:none;fill-rule:nonzero;fill:rgb(64.709473%,100%,56.469727%);fill-opacity:1;" d="M 81.199219 437.214844 C 81.355469 438.617188 82.601562 439.710938 84.007812 439.710938 C 84.164062 439.710938 84.316406 439.710938 84.316406 439.710938 C 85.878906 439.554688 86.96875 437.992188 86.65625 436.433594 C 86.347656 434.558594 86.191406 432.6875 86.035156 430.8125 C 85.878906 429.253906 84.472656 428.160156 82.914062 428.316406 C 81.355469 428.472656 80.261719 429.875 80.417969 431.4375 C 80.574219 433.3125 80.886719 435.339844 81.199219 437.214844 Z M 81.199219 437.214844 "/>
<path style=" stroke:none;fill-rule:nonzero;fill:rgb(64.709473%,100%,56.469727%);fill-opacity:1;" d="M 487.003906 83.042969 C 487.316406 83.042969 487.472656 83.199219 487.785156 83.199219 C 489.03125 83.199219 490.277344 82.417969 490.589844 81.011719 C 491.058594 79.453125 490.121094 77.890625 488.5625 77.578125 C 486.691406 77.109375 484.820312 76.644531 482.949219 76.175781 C 481.390625 75.863281 479.828125 76.800781 479.515625 78.203125 C 479.050781 79.765625 479.984375 81.324219 481.542969 81.636719 C 483.417969 82.105469 485.289062 82.574219 487.003906 83.042969 Z M 487.003906 83.042969 "/>
<path style=" stroke:none;fill-rule:nonzero;fill:rgb(64.709473%,100%,56.469727%);fill-opacity:1;" d="M 86.191406 465.777344 C 86.5 467.183594 87.75 467.964844 88.996094 467.964844 C 89.152344 467.964844 89.464844 467.964844 89.621094 467.964844 C 91.179688 467.652344 92.117188 466.089844 91.804688 464.527344 C 91.335938 462.5 90.867188 460.78125 90.558594 458.910156 C 90.246094 457.347656 88.683594 456.414062 87.125 456.722656 C 85.566406 457.035156 84.628906 458.597656 84.941406 460.160156 C 85.410156 462.03125 85.722656 463.90625 86.191406 465.777344 Z M 86.191406 465.777344 "/>
<path style=" stroke:none;fill-rule:nonzero;fill:rgb(64.709473%,100%,56.469727%);fill-opacity:1;" d="M 95.234375 297.980469 C 95.546875 298.136719 95.859375 298.136719 96.171875 298.136719 C 97.417969 298.136719 98.511719 297.355469 98.976562 296.105469 C 99.601562 294.234375 100.070312 292.515625 100.695312 290.644531 C 101.160156 289.082031 100.382812 287.523438 98.824219 287.054688 C 97.261719 286.585938 95.703125 287.367188 95.234375 288.925781 C 94.613281 290.800781 93.988281 292.671875 93.363281 294.390625 C 92.894531 295.949219 93.675781 297.511719 95.234375 297.980469 Z M 95.234375 297.980469 "/>
<path style=" stroke:none;fill-rule:nonzero;fill:rgb(64.709473%,100%,56.469727%);fill-opacity:1;" d="M 540.339844 102.398438 C 540.808594 102.554688 541.121094 102.710938 541.589844 102.710938 C 542.679688 102.710938 543.773438 102.085938 544.242188 100.992188 C 544.863281 99.589844 544.242188 97.871094 542.835938 97.246094 C 541.121094 96.464844 539.40625 95.6875 537.535156 94.90625 C 536.128906 94.28125 534.414062 94.90625 533.792969 96.308594 C 533.167969 97.714844 533.792969 99.433594 535.195312 100.058594 C 536.910156 100.835938 538.625 101.617188 540.339844 102.398438 Z M 540.339844 102.398438 "/>
<path style=" stroke:none;fill-rule:nonzero;fill:rgb(64.709473%,100%,56.469727%);fill-opacity:1;" d="M 78.546875 408.492188 C 78.546875 409.898438 79.796875 411.144531 81.511719 411.144531 C 83.070312 411.144531 84.316406 409.742188 84.316406 408.179688 C 84.164062 406.308594 84.164062 404.433594 84.164062 402.5625 C 84.164062 401 82.757812 399.75 81.199219 399.75 C 79.640625 399.75 78.390625 401.15625 78.390625 402.71875 C 78.390625 404.589844 78.546875 406.621094 78.546875 408.492188 Z M 78.546875 408.492188 "/>
<path style=" stroke:none;fill-rule:nonzero;fill:rgb(64.709473%,100%,56.469727%);fill-opacity:1;" d="M 631.890625 166.707031 C 632.199219 167.019531 632.667969 167.488281 632.824219 167.644531 C 633.449219 168.269531 634.074219 168.425781 634.851562 168.425781 C 635.632812 168.425781 636.257812 168.113281 636.878906 167.644531 C 637.972656 166.550781 637.972656 164.679688 636.878906 163.585938 C 636.566406 163.273438 636.101562 162.804688 635.789062 162.492188 C 634.695312 161.554688 633.761719 160.464844 632.824219 159.527344 C 631.734375 158.433594 629.863281 158.433594 628.769531 159.527344 C 627.679688 160.621094 627.679688 162.492188 628.769531 163.585938 C 629.707031 164.523438 630.796875 165.769531 631.890625 166.707031 Z M 631.890625 166.707031 "/>
<path style=" stroke:none;fill-rule:nonzero;fill:rgb(64.709473%,100%,56.469727%);fill-opacity:1;" d="M 459.398438 77.109375 C 459.554688 77.109375 459.710938 77.109375 459.867188 77.109375 C 461.269531 77.109375 462.519531 76.175781 462.675781 74.769531 C 462.984375 73.210938 461.894531 71.648438 460.335938 71.492188 C 458.464844 71.179688 456.589844 70.867188 454.5625 70.554688 C 453.003906 70.242188 451.601562 71.335938 451.289062 72.898438 C 450.976562 74.457031 452.226562 75.863281 453.785156 76.175781 C 455.65625 76.488281 457.527344 76.800781 459.398438 77.109375 Z M 459.398438 77.109375 "/>
<path style=" stroke:none;fill-rule:nonzero;fill:rgb(64.709473%,100%,56.469727%);fill-opacity:1;" d="M 190.527344 154.375 C 191.929688 153.128906 193.332031 151.878906 194.738281 150.628906 C 195.984375 149.539062 196.140625 147.820312 195.050781 146.570312 C 193.957031 145.324219 192.242188 145.167969 190.992188 146.257812 C 189.589844 147.507812 188.03125 148.757812 186.628906 150.160156 C 185.535156 151.253906 185.378906 153.128906 186.472656 154.21875 C 187.09375 154.84375 187.875 155.15625 188.65625 155.15625 C 189.277344 155.15625 190.058594 154.84375 190.527344 154.375 Z M 190.527344 154.375 "/>
<path style=" stroke:none;fill-rule:nonzero;fill:rgb(64.709473%,100%,56.469727%);fill-opacity:1;" d="M 103.1875 511.667969 C 101.785156 512.292969 101.007812 514.011719 101.628906 515.414062 C 102.410156 517.132812 103.035156 519.003906 103.8125 520.722656 C 104.28125 521.816406 105.371094 522.4375 106.464844 522.4375 C 106.777344 522.4375 107.246094 522.4375 107.554688 522.28125 C 108.960938 521.660156 109.738281 519.941406 109.117188 518.535156 C 108.335938 516.664062 107.554688 514.945312 106.933594 513.230469 C 106.308594 511.824219 104.75 511.042969 103.1875 511.667969 Z M 103.1875 511.667969 "/>
<path style=" stroke:none;fill-rule:nonzero;fill:rgb(64.709473%,100%,56.469727%);fill-opacity:1;" d="M 731.390625 392.882812 C 731.390625 391.324219 730.144531 390.074219 728.582031 390.074219 C 727.023438 390.074219 725.777344 391.324219 725.777344 392.882812 L 725.777344 393.507812 L 731.546875 393.507812 Z M 731.390625 392.882812 "/>
<path style=" stroke:none;fill-rule:nonzero;fill:rgb(64.709473%,100%,56.469727%);fill-opacity:1;" d="M 212.359375 136.425781 C 213.921875 135.332031 215.324219 134.242188 216.882812 132.992188 C 218.128906 132.054688 218.441406 130.339844 217.507812 128.933594 C 216.570312 127.527344 214.855469 127.371094 213.453125 128.308594 C 211.890625 129.402344 210.332031 130.652344 208.773438 131.742188 C 207.527344 132.679688 207.214844 134.554688 208.148438 135.800781 C 208.929688 136.582031 209.863281 137.050781 210.644531 137.050781 C 211.269531 137.050781 211.890625 136.894531 212.359375 136.425781 Z M 212.359375 136.425781 "/>
<path style=" stroke:none;fill-rule:nonzero;fill:rgb(64.709473%,100%,56.469727%);fill-opacity:1;" d="M 731.234375 399.4375 C 731.234375 397.566406 731.234375 395.535156 731.234375 393.664062 L 725.464844 393.664062 C 725.621094 395.535156 725.621094 397.410156 725.621094 399.28125 C 725.621094 400.84375 726.867188 402.25 728.425781 402.25 C 729.988281 402.25 731.234375 401 731.234375 399.4375 Z M 731.234375 399.4375 "/>
<path style=" stroke:none;fill-rule:nonzero;fill:rgb(64.709473%,100%,56.469727%);fill-opacity:1;" d="M 431.636719 67.746094 C 429.765625 67.589844 427.738281 67.433594 425.867188 67.277344 C 424.308594 67.121094 422.90625 68.371094 422.75 69.929688 C 422.75 71.648438 423.996094 73.054688 425.554688 73.054688 C 427.425781 73.210938 429.296875 73.363281 431.171875 73.519531 C 431.328125 73.519531 431.328125 73.519531 431.480469 73.519531 C 432.886719 73.519531 434.289062 72.429688 434.289062 70.867188 C 434.445312 69.308594 433.199219 67.902344 431.636719 67.746094 Z M 431.636719 67.746094 "/>
<path style=" stroke:none;fill-rule:nonzero;fill:rgb(64.709473%,100%,56.469727%);fill-opacity:1;" d="M 234.351562 120.816406 C 234.820312 120.816406 235.441406 120.660156 235.910156 120.347656 C 237.46875 119.410156 239.183594 118.320312 240.746094 117.382812 C 242.148438 116.601562 242.617188 114.730469 241.679688 113.480469 C 240.902344 112.074219 239.183594 111.605469 237.78125 112.542969 C 236.066406 113.480469 234.507812 114.574219 232.789062 115.507812 C 231.386719 116.289062 231.074219 118.164062 231.855469 119.410156 C 232.480469 120.347656 233.414062 120.816406 234.351562 120.816406 Z M 234.351562 120.816406 "/>
<path style=" stroke:none;fill-rule:nonzero;fill:rgb(64.709473%,100%,56.469727%);fill-opacity:1;" d="M 509.460938 697.261719 C 507.746094 697.886719 505.875 698.507812 504.003906 699.132812 C 502.445312 699.601562 501.664062 701.320312 502.132812 702.722656 C 502.597656 703.972656 503.691406 704.753906 504.78125 704.753906 C 505.09375 704.753906 505.40625 704.753906 505.71875 704.597656 C 507.589844 703.972656 509.304688 703.347656 511.175781 702.722656 C 512.738281 702.253906 513.515625 700.539062 512.894531 699.132812 C 512.582031 697.574219 511.019531 696.792969 509.460938 697.261719 Z M 509.460938 697.261719 "/>
<path style=" stroke:none;fill-rule:nonzero;fill:rgb(64.709473%,100%,56.469727%);fill-opacity:1;" d="M 702.226562 258.332031 C 701.445312 256.617188 700.667969 254.898438 699.730469 253.183594 C 699.105469 251.777344 697.390625 251.152344 695.832031 251.777344 C 694.429688 252.402344 693.804688 254.117188 694.429688 255.679688 C 695.363281 257.242188 696.144531 258.957031 696.925781 260.675781 C 697.390625 261.765625 698.484375 262.390625 699.574219 262.390625 C 700.042969 262.390625 700.355469 262.234375 700.824219 262.078125 C 702.226562 261.453125 702.851562 259.738281 702.226562 258.332031 Z M 702.226562 258.332031 "/>
<path style=" stroke:none;fill-rule:nonzero;fill:rgb(64.709473%,100%,56.469727%);fill-opacity:1;" d="M 482.324219 705.378906 C 480.453125 705.847656 478.582031 706.3125 476.867188 706.625 C 475.304688 706.9375 474.371094 708.5 474.683594 710.058594 C 474.996094 711.464844 476.242188 712.246094 477.488281 712.246094 C 477.644531 712.246094 477.957031 712.246094 478.113281 712.246094 C 479.984375 711.777344 481.855469 711.308594 483.726562 710.839844 C 485.289062 710.527344 486.222656 708.96875 485.753906 707.40625 C 485.445312 705.847656 483.882812 704.910156 482.324219 705.378906 Z M 482.324219 705.378906 "/>
<path style=" stroke:none;fill-rule:nonzero;fill:rgb(64.709473%,100%,56.469727%);fill-opacity:1;" d="M 454.40625 710.996094 C 452.535156 711.308594 450.664062 711.621094 448.792969 711.777344 C 447.234375 711.933594 446.140625 713.496094 446.296875 715.054688 C 446.453125 716.460938 447.703125 717.550781 449.105469 717.550781 C 449.261719 717.550781 449.417969 717.550781 449.574219 717.550781 C 451.445312 717.242188 453.316406 717.085938 455.34375 716.773438 C 456.902344 716.460938 457.996094 715.054688 457.683594 713.496094 C 457.527344 711.777344 455.96875 710.683594 454.40625 710.996094 Z M 454.40625 710.996094 "/>
<path style=" stroke:none;fill-rule:nonzero;fill:rgb(64.709473%,100%,56.469727%);fill-opacity:1;" d="M 720.003906 307.1875 C 719.539062 305.628906 717.976562 304.691406 716.417969 305.160156 C 714.859375 305.628906 713.921875 307.1875 714.390625 308.75 C 714.859375 310.46875 715.328125 312.339844 715.792969 314.214844 C 716.105469 315.460938 717.355469 316.398438 718.601562 316.398438 C 718.914062 316.398438 719.070312 316.398438 719.382812 316.242188 C 720.941406 315.773438 721.878906 314.214844 721.410156 312.808594 C 720.941406 310.9375 720.472656 309.0625 720.003906 307.1875 Z M 720.003906 307.1875 "/>
<path style=" stroke:none;fill-rule:nonzero;fill:rgb(64.709473%,100%,56.469727%);fill-opacity:1;" d="M 712.832031 285.023438 C 712.207031 283.152344 711.585938 281.433594 710.804688 279.5625 C 710.179688 278 708.621094 277.375 707.0625 277.84375 C 705.5 278.46875 704.878906 280.03125 705.34375 281.589844 C 706.28125 283.308594 706.90625 285.179688 707.527344 286.898438 C 707.996094 288.144531 709.089844 288.769531 710.179688 288.769531 C 710.492188 288.769531 710.804688 288.769531 711.117188 288.613281 C 712.675781 288.144531 713.457031 286.429688 712.832031 285.023438 Z M 712.832031 285.023438 "/>
<path style=" stroke:none;fill-rule:nonzero;fill:rgb(64.709473%,100%,56.469727%);fill-opacity:1;" d="M 671.347656 212.597656 C 671.96875 212.597656 672.4375 212.441406 672.90625 212.128906 C 674.152344 211.195312 674.464844 209.476562 673.6875 208.070312 C 672.59375 206.511719 671.503906 204.949219 670.410156 203.390625 C 669.476562 202.140625 667.757812 201.828125 666.355469 202.765625 C 665.109375 203.699219 664.796875 205.417969 665.730469 206.824219 C 666.824219 208.226562 667.914062 209.789062 669.007812 211.347656 C 669.632812 212.128906 670.410156 212.597656 671.347656 212.597656 Z M 671.347656 212.597656 "/>
<path style=" stroke:none;fill-rule:nonzero;fill:rgb(64.709473%,100%,56.469727%);fill-opacity:1;" d="M 689.125 232.578125 C 688.191406 230.859375 687.253906 229.300781 686.164062 227.582031 C 685.382812 226.179688 683.667969 225.710938 682.265625 226.644531 C 680.859375 227.425781 680.390625 229.144531 681.328125 230.546875 C 682.265625 232.109375 683.199219 233.671875 684.136719 235.386719 C 684.601562 236.324219 685.695312 236.792969 686.628906 236.792969 C 687.097656 236.792969 687.566406 236.636719 688.035156 236.480469 C 689.4375 235.699219 689.90625 233.984375 689.125 232.578125 Z M 689.125 232.578125 "/>
<path style=" stroke:none;fill-rule:nonzero;fill:rgb(64.709473%,100%,56.469727%);fill-opacity:1;" d="M 647.015625 611.566406 C 647.796875 611.566406 648.578125 611.253906 649.199219 610.628906 C 650.449219 609.226562 651.695312 607.664062 652.945312 606.257812 C 654.035156 605.011719 653.878906 603.292969 652.632812 602.203125 C 651.382812 601.109375 649.511719 601.265625 648.578125 602.511719 C 647.328125 603.917969 646.082031 605.324219 644.832031 606.726562 C 643.742188 607.976562 643.898438 609.695312 645.144531 610.785156 C 645.769531 611.253906 646.394531 611.566406 647.015625 611.566406 Z M 647.015625 611.566406 "/>
<path style=" stroke:none;fill-rule:nonzero;fill:rgb(64.709473%,100%,56.469727%);fill-opacity:1;" d="M 714.859375 486.851562 C 715.171875 486.851562 715.328125 487.007812 715.640625 487.007812 C 716.886719 487.007812 717.976562 486.226562 718.445312 484.976562 C 718.914062 483.105469 719.539062 481.230469 720.003906 479.359375 C 720.472656 477.796875 719.539062 476.234375 717.976562 475.769531 C 716.417969 475.300781 714.859375 476.234375 714.390625 477.796875 C 713.921875 479.671875 713.457031 481.386719 712.832031 483.261719 C 712.363281 484.820312 713.300781 486.382812 714.859375 486.851562 Z M 714.859375 486.851562 "/>
<path style=" stroke:none;fill-rule:nonzero;fill:rgb(64.709473%,100%,56.469727%);fill-opacity:1;" d="M 426.179688 714.117188 C 424.308594 714.273438 422.4375 714.429688 420.566406 714.429688 C 419.003906 714.429688 417.757812 715.835938 417.914062 717.398438 C 417.914062 718.957031 419.316406 720.207031 420.722656 720.207031 L 420.878906 720.207031 C 422.75 720.050781 424.777344 720.050781 426.648438 719.894531 C 428.207031 719.738281 429.453125 718.488281 429.296875 716.773438 C 429.144531 715.054688 427.894531 713.960938 426.179688 714.117188 Z M 426.179688 714.117188 "/>
<path style=" stroke:none;fill-rule:nonzero;fill:rgb(64.709473%,100%,56.469727%);fill-opacity:1;" d="M 709.554688 503.238281 C 708.152344 502.617188 706.4375 503.394531 705.8125 504.957031 C 705.191406 506.671875 704.410156 508.546875 703.785156 510.265625 C 703.164062 511.667969 703.941406 513.386719 705.34375 514.011719 C 705.65625 514.167969 705.96875 514.167969 706.4375 514.167969 C 707.527344 514.167969 708.621094 513.542969 709.089844 512.292969 C 709.867188 510.417969 710.492188 508.703125 711.117188 506.828125 C 711.738281 505.425781 710.960938 503.707031 709.554688 503.238281 Z M 709.554688 503.238281 "/>
<path style=" stroke:none;fill-rule:nonzero;fill:rgb(64.709473%,100%,56.469727%);fill-opacity:1;" d="M 679.457031 565.050781 C 679.925781 565.363281 680.390625 565.519531 681.015625 565.519531 C 681.953125 565.519531 682.886719 565.050781 683.511719 564.113281 C 684.445312 562.398438 685.539062 560.835938 686.476562 559.121094 C 687.253906 557.714844 686.785156 556 685.382812 555.21875 C 683.980469 554.4375 682.265625 554.90625 681.484375 556.3125 C 680.546875 557.871094 679.613281 559.589844 678.519531 561.148438 C 677.742188 562.554688 678.054688 564.269531 679.457031 565.050781 Z M 679.457031 565.050781 "/>
<path style=" stroke:none;fill-rule:nonzero;fill:rgb(64.709473%,100%,56.469727%);fill-opacity:1;" d="M 114.730469 537.734375 C 113.328125 538.515625 112.703125 540.234375 113.484375 541.636719 C 114.417969 543.355469 115.199219 545.070312 116.132812 546.789062 C 116.601562 547.726562 117.695312 548.351562 118.628906 548.351562 C 119.097656 548.351562 119.566406 548.195312 120.03125 548.039062 C 121.4375 547.257812 121.90625 545.539062 121.28125 544.136719 C 120.34375 542.417969 119.410156 540.703125 118.628906 538.984375 C 117.847656 537.578125 116.132812 536.957031 114.730469 537.734375 Z M 114.730469 537.734375 "/>
<path style=" stroke:none;fill-rule:nonzero;fill:rgb(64.709473%,100%,56.469727%);fill-opacity:1;" d="M 608.027344 642.160156 C 606.625 643.410156 605.0625 644.503906 603.660156 645.75 C 602.414062 646.6875 602.257812 648.558594 603.191406 649.808594 C 603.816406 650.589844 604.597656 650.902344 605.375 650.902344 C 606 650.902344 606.625 650.746094 607.089844 650.277344 C 608.652344 649.027344 610.054688 647.9375 611.613281 646.6875 C 612.863281 645.75 613.019531 643.878906 612.082031 642.628906 C 610.992188 641.378906 609.273438 641.222656 608.027344 642.160156 Z M 608.027344 642.160156 "/>
<path style=" stroke:none;fill-rule:nonzero;fill:rgb(64.709473%,100%,56.469727%);fill-opacity:1;" d="M 535.820312 686.800781 C 534.101562 687.582031 532.386719 688.363281 530.671875 689.144531 C 529.269531 689.769531 528.488281 691.484375 529.113281 692.890625 C 529.582031 693.984375 530.671875 694.605469 531.765625 694.605469 C 532.074219 694.605469 532.542969 694.605469 532.855469 694.449219 C 534.570312 693.671875 536.441406 692.890625 538.15625 692.109375 C 539.5625 691.484375 540.183594 689.769531 539.5625 688.363281 C 538.9375 686.800781 537.222656 686.179688 535.820312 686.800781 Z M 535.820312 686.800781 "/>
<path style=" stroke:none;fill-rule:nonzero;fill:rgb(64.709473%,100%,56.469727%);fill-opacity:1;" d="M 666.042969 580.035156 C 664.953125 581.597656 663.859375 583.160156 662.769531 584.5625 C 661.832031 585.8125 662.144531 587.683594 663.394531 588.621094 C 663.859375 588.933594 664.484375 589.246094 665.109375 589.246094 C 666.042969 589.246094 666.824219 588.777344 667.449219 588.152344 C 668.539062 586.59375 669.785156 585.03125 670.878906 583.46875 C 671.660156 582.066406 671.347656 580.347656 670.097656 579.410156 C 668.851562 578.476562 666.980469 578.789062 666.042969 580.035156 Z M 666.042969 580.035156 "/>
<path style=" stroke:none;fill-rule:nonzero;fill:rgb(64.709473%,100%,56.469727%);fill-opacity:1;" d="M 561.238281 674.160156 C 559.523438 675.097656 557.964844 676.03125 556.25 676.8125 C 554.84375 677.59375 554.378906 679.308594 555 680.714844 C 555.46875 681.652344 556.5625 682.277344 557.496094 682.277344 C 557.964844 682.277344 558.433594 682.121094 558.902344 681.964844 C 560.617188 681.027344 562.332031 680.089844 563.890625 679.152344 C 565.292969 678.375 565.761719 676.65625 564.984375 675.253906 C 564.359375 673.847656 562.488281 673.378906 561.238281 674.160156 Z M 561.238281 674.160156 "/>
<path style=" stroke:none;fill-rule:nonzero;fill:rgb(64.709473%,100%,56.469727%);fill-opacity:1;" d="M 726.242188 335.285156 C 725.933594 333.726562 724.527344 332.632812 722.96875 332.945312 C 721.410156 333.257812 720.316406 334.816406 720.628906 336.378906 C 720.941406 338.25 721.253906 340.125 721.566406 341.996094 C 721.722656 343.402344 722.96875 344.339844 724.371094 344.339844 C 724.527344 344.339844 724.683594 344.339844 724.839844 344.339844 C 726.398438 344.027344 727.492188 342.621094 727.179688 341.0625 C 726.867188 339.1875 726.554688 337.316406 726.242188 335.285156 Z M 726.242188 335.285156 "/>
<path style=" stroke:none;fill-rule:nonzero;fill:rgb(64.709473%,100%,56.469727%);fill-opacity:1;" d="M 585.257812 659.175781 C 583.699219 660.265625 582.136719 661.359375 580.578125 662.296875 C 579.332031 663.234375 578.863281 664.949219 579.800781 666.199219 C 580.421875 666.980469 581.203125 667.449219 582.136719 667.449219 C 582.605469 667.449219 583.230469 667.292969 583.699219 666.980469 C 585.257812 665.886719 586.972656 664.792969 588.53125 663.703125 C 589.78125 662.765625 590.25 661.046875 589.3125 659.644531 C 588.375 658.550781 586.660156 658.238281 585.257812 659.175781 Z M 585.257812 659.175781 "/>
<path style=" stroke:none;fill-rule:nonzero;fill:rgb(64.709473%,100%,56.469727%);fill-opacity:1;" d="M 724.371094 364.476562 C 724.527344 366.347656 724.683594 368.222656 724.839844 370.09375 C 724.996094 371.65625 726.242188 372.746094 727.648438 372.746094 L 727.804688 372.746094 C 729.363281 372.589844 730.609375 371.1875 730.453125 369.625 C 730.300781 367.753906 730.144531 365.722656 729.988281 363.851562 C 729.832031 362.289062 728.425781 361.039062 726.867188 361.195312 C 725.308594 361.507812 724.214844 362.914062 724.371094 364.476562 Z M 724.371094 364.476562 "/>
<path style=" stroke:none;fill-rule:nonzero;fill:rgb(64.709473%,100%,56.469727%);fill-opacity:1;" d="M 335.878906 707.40625 C 334.320312 707.09375 332.761719 708.03125 332.449219 709.59375 C 332.136719 711.152344 333.074219 712.714844 334.632812 713.027344 C 336.503906 713.496094 338.375 713.804688 340.246094 714.273438 C 340.402344 714.273438 340.558594 714.273438 340.871094 714.273438 C 342.273438 714.273438 343.367188 713.339844 343.675781 711.933594 C 343.988281 710.371094 343.054688 708.8125 341.492188 708.5 C 339.621094 708.1875 337.75 707.71875 335.878906 707.40625 Z M 335.878906 707.40625 "/>
<path style=" stroke:none;fill-rule:nonzero;fill:rgb(64.709473%,100%,56.469727%);fill-opacity:1;" d="M 231.542969 664.011719 C 230.140625 663.234375 228.425781 663.546875 227.644531 664.949219 C 226.863281 666.355469 227.175781 668.070312 228.582031 668.851562 C 230.140625 669.945312 231.855469 670.882812 233.414062 671.972656 C 233.882812 672.285156 234.351562 672.441406 234.972656 672.441406 C 235.910156 672.441406 236.847656 671.972656 237.46875 671.039062 C 238.09375 669.632812 237.625 667.914062 236.378906 666.980469 C 234.820312 666.042969 233.101562 664.949219 231.542969 664.011719 Z M 231.542969 664.011719 "/>
<path style=" stroke:none;fill-rule:nonzero;fill:rgb(64.709473%,100%,56.469727%);fill-opacity:1;" d="M 182.570312 629.359375 C 181.480469 630.453125 181.636719 632.328125 182.726562 633.417969 C 184.132812 634.667969 185.535156 636.074219 186.9375 637.320312 C 187.5625 637.789062 188.1875 638.101562 188.8125 638.101562 C 189.589844 638.101562 190.371094 637.789062 190.992188 637.164062 C 192.085938 635.917969 191.929688 634.199219 190.839844 633.105469 C 189.433594 631.703125 188.03125 630.453125 186.628906 629.207031 C 185.535156 628.113281 183.664062 628.269531 182.570312 629.359375 Z M 182.570312 629.359375 "/>
<path style=" stroke:none;fill-rule:nonzero;fill:rgb(64.709473%,100%,56.469727%);fill-opacity:1;" d="M 208.304688 647.625 C 207.058594 646.6875 205.1875 646.84375 204.25 648.09375 C 203.316406 649.339844 203.472656 651.214844 204.71875 652.152344 C 206.277344 653.398438 207.835938 654.492188 209.398438 655.585938 C 209.863281 655.898438 210.488281 656.207031 211.113281 656.207031 C 212.046875 656.207031 212.828125 655.742188 213.453125 655.117188 C 214.386719 653.710938 214.074219 651.996094 212.828125 651.058594 C 211.269531 649.964844 209.863281 648.714844 208.304688 647.625 Z M 208.304688 647.625 "/>
<path style=" stroke:none;fill-rule:nonzero;fill:rgb(64.709473%,100%,56.469727%);fill-opacity:1;" d="M 256.183594 678.21875 C 254.78125 677.4375 253.066406 678.0625 252.285156 679.464844 C 251.507812 680.871094 252.128906 682.589844 253.535156 683.367188 C 255.25 684.304688 256.964844 685.085938 258.679688 686.023438 C 259.148438 686.179688 259.460938 686.335938 259.929688 686.335938 C 261.019531 686.335938 261.957031 685.710938 262.421875 684.773438 C 263.046875 683.367188 262.578125 681.652344 261.175781 680.871094 C 259.460938 680.089844 257.746094 679.152344 256.183594 678.21875 Z M 256.183594 678.21875 "/>
<path style=" stroke:none;fill-rule:nonzero;fill:rgb(64.709473%,100%,56.469727%);fill-opacity:1;" d="M 722.035156 459.222656 C 722.1875 459.222656 722.34375 459.222656 722.65625 459.222656 C 724.0625 459.222656 725.152344 458.285156 725.464844 456.878906 C 725.777344 455.007812 726.242188 453.132812 726.554688 451.261719 C 726.554688 449.542969 725.621094 448.140625 724.0625 447.828125 C 722.5 447.515625 720.941406 448.609375 720.785156 450.167969 C 720.472656 452.042969 720.160156 453.914062 719.695312 455.789062 C 719.382812 457.347656 720.472656 458.910156 722.035156 459.222656 Z M 722.035156 459.222656 "/>
<path style=" stroke:none;fill-rule:nonzero;fill:rgb(64.709473%,100%,56.469727%);fill-opacity:1;" d="M 128.609375 562.710938 C 127.207031 563.492188 126.894531 565.363281 127.675781 566.613281 C 128.765625 568.171875 129.703125 569.890625 130.792969 571.453125 C 131.417969 572.230469 132.199219 572.699219 133.132812 572.699219 C 133.601562 572.699219 134.226562 572.542969 134.691406 572.230469 C 136.097656 571.296875 136.410156 569.578125 135.472656 568.328125 C 134.535156 566.925781 133.601562 565.363281 132.507812 563.648438 C 131.730469 562.242188 129.859375 561.929688 128.609375 562.710938 Z M 128.609375 562.710938 "/>
<path style=" stroke:none;fill-rule:nonzero;fill:rgb(64.709473%,100%,56.469727%);fill-opacity:1;" d="M 568.414062 110.671875 C 566.699219 109.734375 565.140625 108.796875 563.421875 107.859375 C 562.019531 107.082031 560.304688 107.550781 559.523438 108.953125 C 558.746094 110.359375 559.210938 112.074219 560.617188 112.855469 C 562.332031 113.792969 563.890625 114.730469 565.605469 115.664062 C 566.074219 115.976562 566.542969 115.976562 567.011719 115.976562 C 567.945312 115.976562 569.039062 115.507812 569.503906 114.574219 C 570.285156 113.167969 569.816406 111.453125 568.414062 110.671875 Z M 568.414062 110.671875 "/>
<path style=" stroke:none;fill-rule:nonzero;fill:rgb(64.709473%,100%,56.469727%);fill-opacity:1;" d="M 144.519531 586.4375 C 143.269531 587.371094 142.957031 589.246094 143.894531 590.496094 C 144.984375 592.054688 146.234375 593.617188 147.480469 595.019531 C 148.105469 595.800781 148.886719 596.113281 149.664062 596.113281 C 150.289062 596.113281 150.914062 595.957031 151.378906 595.488281 C 152.628906 594.554688 152.785156 592.679688 151.847656 591.429688 C 150.914062 590.183594 149.820312 588.621094 148.574219 587.0625 C 147.636719 585.8125 145.765625 585.5 144.519531 586.4375 Z M 144.519531 586.4375 "/>
<path style=" stroke:none;fill-rule:nonzero;fill:rgb(64.709473%,100%,56.469727%);fill-opacity:1;" d="M 162.609375 608.757812 C 161.363281 609.851562 161.363281 611.566406 162.453125 612.816406 C 163.703125 614.21875 165.105469 615.625 166.351562 617.03125 C 166.976562 617.65625 167.757812 617.964844 168.378906 617.964844 C 169.160156 617.964844 169.785156 617.65625 170.40625 617.1875 C 171.65625 616.09375 171.65625 614.375 170.5625 613.128906 C 169.316406 611.722656 167.914062 610.316406 166.664062 608.914062 C 165.574219 607.664062 163.855469 607.664062 162.609375 608.757812 Z M 162.609375 608.757812 "/>
<path style=" stroke:none;fill-rule:nonzero;fill:rgb(64.709473%,100%,56.469727%);fill-opacity:1;" d="M 281.761719 690.238281 C 280.359375 689.613281 278.644531 690.394531 278.019531 691.796875 C 277.394531 693.203125 278.175781 694.917969 279.578125 695.542969 C 281.292969 696.324219 283.164062 696.949219 284.882812 697.730469 C 285.191406 697.886719 285.503906 697.886719 285.972656 697.886719 C 287.066406 697.886719 288.15625 697.261719 288.625 696.011719 C 289.246094 694.761719 288.625 693.046875 287.066406 692.421875 C 285.347656 691.796875 283.476562 691.015625 281.761719 690.238281 Z M 281.761719 690.238281 "/>
<path style=" stroke:none;fill-rule:nonzero;fill:rgb(64.709473%,100%,56.469727%);fill-opacity:1;" d="M 651.851562 188.714844 C 652.476562 189.339844 653.253906 189.808594 654.035156 189.808594 C 654.660156 189.808594 655.28125 189.652344 655.90625 189.183594 C 657.15625 188.25 657.308594 186.375 656.21875 185.125 C 654.972656 183.566406 653.722656 182.160156 652.476562 180.753906 C 651.382812 179.507812 649.667969 179.351562 648.421875 180.445312 C 647.171875 181.535156 647.015625 183.253906 648.109375 184.5 C 649.511719 185.75 650.605469 187.15625 651.851562 188.714844 Z M 651.851562 188.714844 "/>
<path style=" stroke:none;fill-rule:nonzero;fill:rgb(64.709473%,100%,56.469727%);fill-opacity:1;" d="M 629.082031 623.273438 C 627.679688 624.523438 626.429688 625.925781 625.027344 627.175781 C 623.933594 628.269531 623.777344 629.984375 624.871094 631.234375 C 625.496094 631.859375 626.117188 632.171875 626.898438 632.171875 C 627.679688 632.171875 628.300781 631.859375 628.925781 631.390625 C 630.328125 630.140625 631.734375 628.738281 633.136719 627.332031 C 634.226562 626.238281 634.226562 624.367188 633.136719 623.273438 C 632.046875 622.179688 630.171875 622.179688 629.082031 623.273438 Z M 629.082031 623.273438 "/>
<path style=" stroke:none;fill-rule:nonzero;fill:rgb(64.709473%,100%,56.469727%);fill-opacity:1;" d="M 729.519531 428.316406 C 729.675781 426.441406 729.832031 424.414062 730.144531 422.539062 C 730.300781 420.824219 729.050781 419.574219 727.492188 419.417969 C 725.933594 419.261719 724.527344 420.511719 724.371094 422.074219 C 724.214844 423.945312 724.0625 425.820312 723.90625 427.691406 C 723.75 429.253906 724.839844 430.65625 726.398438 430.8125 C 726.554688 430.8125 726.554688 430.8125 726.710938 430.8125 C 728.117188 430.8125 729.363281 429.722656 729.519531 428.316406 Z M 729.519531 428.316406 "/>
<path style=" stroke:none;fill-rule:nonzero;fill:rgb(64.709473%,100%,56.469727%);fill-opacity:1;" d="M 613.796875 148.914062 C 614.578125 148.914062 615.359375 148.601562 615.980469 147.820312 C 617.074219 146.570312 616.917969 144.855469 615.667969 143.761719 C 614.265625 142.511719 612.707031 141.265625 611.148438 140.015625 C 609.898438 139.078125 608.183594 139.234375 607.089844 140.484375 C 606 141.734375 606.3125 143.449219 607.558594 144.542969 C 609.117188 145.949219 610.523438 147.195312 611.925781 148.289062 C 612.394531 148.757812 613.175781 148.914062 613.796875 148.914062 Z M 613.796875 148.914062 "/>
<path style=" stroke:none;fill-rule:nonzero;fill:rgb(64.709473%,100%,56.469727%);fill-opacity:1;" d="M 698.640625 529.773438 C 697.234375 529.152344 695.519531 529.773438 694.894531 531.179688 C 694.117188 532.898438 693.179688 534.613281 692.402344 536.332031 C 691.621094 537.734375 692.246094 539.453125 693.648438 540.234375 C 694.117188 540.390625 694.429688 540.546875 694.894531 540.546875 C 695.988281 540.546875 696.921875 539.921875 697.390625 538.984375 C 698.328125 537.265625 699.105469 535.550781 699.886719 533.832031 C 700.667969 532.117188 700.042969 530.398438 698.640625 529.773438 Z M 698.640625 529.773438 "/>
<path style=" stroke:none;fill-rule:nonzero;fill:rgb(64.709473%,100%,56.469727%);fill-opacity:1;" d="M 589.46875 130.960938 C 589.9375 131.273438 590.558594 131.429688 591.183594 131.429688 C 592.121094 131.429688 592.898438 130.960938 593.523438 130.183594 C 594.460938 128.933594 594.148438 127.058594 592.898438 126.125 C 591.339844 125.03125 589.78125 123.9375 588.066406 122.847656 C 586.816406 121.910156 584.945312 122.222656 584.011719 123.625 C 583.230469 125.03125 583.542969 126.90625 584.789062 127.683594 C 586.347656 128.777344 587.910156 129.871094 589.46875 130.960938 Z M 589.46875 130.960938 "/>
<path style=" stroke:none;fill-rule:nonzero;fill:rgb(64.709473%,100%,56.469727%);fill-opacity:1;" d="M 308.429688 700.070312 C 306.871094 699.601562 305.3125 700.382812 304.84375 701.945312 C 304.375 703.503906 305.15625 705.066406 306.714844 705.535156 C 308.585938 706.15625 310.457031 706.625 312.175781 707.25 C 312.484375 707.40625 312.640625 707.40625 312.953125 707.40625 C 314.203125 707.40625 315.292969 706.625 315.761719 705.378906 C 316.382812 703.816406 315.449219 702.101562 313.890625 701.789062 C 312.019531 701.320312 310.300781 700.695312 308.429688 700.070312 Z M 308.429688 700.070312 "/>
<path style=" stroke:none;fill-rule:nonzero;fill:rgb(64.709473%,100%,56.469727%);fill-opacity:1;" d="M 363.953125 712.246094 C 362.394531 712.089844 360.988281 713.183594 360.675781 714.742188 C 360.519531 716.304688 361.613281 717.707031 363.171875 718.019531 C 365.042969 718.332031 367.070312 718.488281 368.941406 718.644531 C 369.097656 718.644531 369.097656 718.644531 369.253906 718.644531 C 370.660156 718.644531 371.90625 717.550781 372.0625 716.148438 C 372.21875 714.429688 371.125 713.027344 369.566406 712.871094 C 367.695312 712.714844 365.824219 712.402344 363.953125 712.246094 Z M 363.953125 712.246094 "/>
<path style=" stroke:none;fill-rule:nonzero;fill:rgb(64.709473%,100%,56.469727%);fill-opacity:1;" d="M 392.179688 714.585938 C 390.621094 714.585938 389.21875 715.835938 389.21875 717.394531 C 389.21875 718.957031 390.464844 720.363281 392.023438 720.363281 C 393.894531 720.363281 395.921875 720.519531 397.796875 720.519531 C 399.355469 720.519531 400.601562 719.269531 400.601562 717.707031 C 400.757812 715.992188 399.511719 714.742188 397.796875 714.742188 C 395.921875 714.742188 394.050781 714.585938 392.179688 714.585938 Z M 392.179688 714.585938 "/>
<path style=" stroke:none;fill-rule:nonzero;fill:rgb(64.709473%,100%,56.469727%);fill-opacity:1;" d="M 613.484375 602.203125 C 559.992188 655.898438 486.222656 688.988281 404.8125 688.988281 L 404.8125 689.144531 C 323.402344 688.988281 249.632812 655.898438 196.296875 602.359375 C 142.648438 548.972656 109.582031 474.988281 109.582031 393.507812 C 109.582031 312.027344 142.648438 238.195312 196.140625 184.8125 C 249.632812 131.117188 323.402344 98.027344 404.8125 98.027344 L 404.8125 86.007812 C 320.128906 86.007812 243.238281 120.503906 187.71875 176.230469 L 187.5625 176.074219 C 132.042969 231.953125 97.574219 308.75 97.574219 393.507812 C 97.574219 478.265625 132.042969 555.21875 187.71875 610.785156 L 187.5625 610.941406 C 243.238281 666.667969 319.972656 701.164062 404.8125 701.164062 L 404.8125 701.007812 C 489.5 701.007812 566.386719 666.511719 622.0625 610.785156 Z M 613.484375 602.203125 "/>
<path style=" stroke:none;fill-rule:nonzero;fill:rgb(64.709473%,100%,56.469727%);fill-opacity:1;" d="M 563.734375 170.921875 C 561.707031 173.574219 562.175781 177.476562 564.984375 179.507812 C 575.121094 187.15625 593.679688 204.636719 593.679688 204.636719 C 601.476562 212.597656 608.964844 220.871094 615.667969 229.613281 C 616.917969 231.171875 618.789062 231.953125 620.503906 231.953125 C 621.75 231.953125 623.15625 231.484375 624.246094 230.703125 C 626.898438 228.675781 627.367188 224.773438 625.339844 222.121094 C 618.164062 212.910156 602.101562 196.050781 602.101562 196.050781 C 592.742188 186.53125 582.761719 177.789062 572.3125 169.671875 C 569.660156 167.644531 565.761719 168.113281 563.734375 170.921875 Z M 563.734375 170.921875 "/>
<path style=" stroke:none;fill-rule:nonzero;fill:rgb(64.709473%,100%,56.469727%);fill-opacity:1;" d="M 598.046875 593.929688 C 599.136719 592.835938 600.386719 591.585938 601.476562 590.496094 L 592.898438 581.910156 C 591.808594 583.003906 590.714844 584.09375 589.625 585.1875 C 587.285156 587.527344 587.128906 591.273438 589.46875 593.773438 C 590.714844 595.019531 592.277344 595.644531 593.835938 595.644531 C 595.394531 595.644531 596.953125 595.019531 598.046875 593.929688 Z M 598.046875 593.929688 "/>
<path style=" stroke:none;fill-rule:nonzero;fill:rgb(64.709473%,100%,56.469727%);fill-opacity:1;" d="M 642.339844 526.964844 C 639.375 525.25 635.632812 526.183594 633.917969 529.152344 C 622.53125 548.351562 608.652344 565.988281 592.898438 581.753906 L 601.476562 590.339844 C 618.164062 573.949219 632.511719 555.53125 644.523438 535.394531 C 646.238281 532.429688 645.300781 528.683594 642.339844 526.964844 Z M 642.339844 526.964844 "/>
<path style=" stroke:none;fill-rule:nonzero;fill:rgb(64.709473%,100%,56.469727%);fill-opacity:1;" d="M 675.402344 365.722656 C 675.714844 365.722656 675.871094 365.722656 676.179688 365.722656 C 679.457031 365.253906 681.953125 362.289062 681.484375 358.855469 C 678.519531 334.035156 672.125 309.6875 662.613281 286.585938 C 661.367188 283.464844 657.777344 281.902344 654.660156 283.308594 C 651.539062 284.554688 649.980469 288.144531 651.382812 291.269531 C 660.429688 313.433594 666.511719 336.691406 669.320312 360.417969 C 669.632812 363.539062 672.28125 365.722656 675.402344 365.722656 Z M 675.402344 365.722656 "/>
<path style=" stroke:none;fill-rule:nonzero;fill:rgb(64.709473%,100%,56.469727%);fill-opacity:1;" d="M 394.363281 672.128906 L 394.519531 672.128906 C 397.796875 672.128906 400.445312 669.476562 400.601562 666.199219 C 400.757812 662.765625 398.105469 659.953125 394.675781 659.800781 C 370.8125 658.863281 347.109375 654.960938 324.496094 647.78125 C 321.21875 646.84375 317.789062 648.558594 316.851562 651.839844 C 315.917969 655.117188 317.632812 658.550781 320.90625 659.488281 C 344.613281 666.980469 369.410156 671.195312 394.363281 672.128906 Z M 394.363281 672.128906 "/>
<path style=" stroke:none;fill-rule:nonzero;fill:rgb(64.709473%,100%,56.469727%);fill-opacity:1;" d="M 461.113281 660.109375 C 461.738281 662.921875 464.234375 664.792969 467.039062 664.792969 C 467.507812 664.792969 467.976562 664.792969 468.445312 664.636719 C 492.773438 658.863281 516.167969 649.964844 538.003906 637.945312 C 540.964844 636.386719 542.058594 632.640625 540.496094 629.671875 C 538.9375 626.863281 535.195312 625.769531 532.230469 627.332031 C 511.332031 638.726562 488.875 647.3125 465.636719 652.773438 C 462.363281 653.554688 460.335938 656.832031 461.113281 660.109375 Z M 461.113281 660.109375 "/>
<path style=" stroke:none;fill-rule:nonzero;fill:rgb(64.709473%,100%,56.469727%);fill-opacity:1;" d="M 207.679688 590.960938 C 221.5625 604.699219 236.847656 617.03125 253.378906 627.644531 C 254.46875 628.269531 255.5625 628.582031 256.652344 628.582031 C 258.679688 628.582031 260.550781 627.644531 261.800781 625.769531 C 263.671875 622.960938 262.734375 619.214844 259.929688 617.34375 C 244.175781 607.195312 229.671875 595.332031 216.257812 582.222656 C 212.671875 578.476562 209.085938 574.730469 205.652344 571.140625 C 203.472656 568.640625 199.570312 568.484375 197.078125 570.671875 C 194.582031 572.855469 194.425781 576.757812 196.609375 579.257812 C 200.195312 583.3125 203.9375 587.0625 207.679688 590.960938 Z M 207.679688 590.960938 "/>
<path style=" stroke:none;fill-rule:nonzero;fill:rgb(64.709473%,100%,56.469727%);fill-opacity:1;" d="M 428.207031 120.660156 C 427.894531 123.9375 430.234375 126.90625 433.664062 127.371094 C 457.371094 130.027344 480.765625 135.800781 502.910156 144.542969 C 503.691406 144.855469 504.472656 145.011719 505.09375 145.011719 C 507.589844 145.011719 509.773438 143.605469 510.710938 141.109375 C 511.957031 137.988281 510.398438 134.398438 507.277344 133.148438 C 484.039062 123.9375 459.710938 117.851562 434.914062 115.199219 C 431.636719 114.886719 428.519531 117.226562 428.207031 120.660156 Z M 428.207031 120.660156 "/>
<path style=" stroke:none;fill-rule:nonzero;fill:rgb(64.709473%,100%,56.469727%);fill-opacity:1;" d="M 656.53125 393.664062 C 656.53125 324.046875 628.300781 261.140625 582.917969 215.5625 C 537.378906 169.984375 474.371094 141.734375 404.96875 141.734375 C 335.566406 141.734375 272.714844 169.984375 227.175781 215.5625 C 181.636719 261.140625 153.40625 324.046875 153.40625 393.507812 C 153.40625 462.96875 181.636719 525.714844 227.019531 571.296875 C 272.558594 616.875 335.410156 645.28125 404.8125 645.28125 L 404.8125 632.484375 C 339 632.484375 279.265625 605.480469 236.066406 562.242188 C 192.710938 519.003906 166.039062 459.378906 166.039062 393.351562 C 166.039062 327.480469 192.867188 267.699219 236.066406 224.460938 C 279.265625 181.378906 339 154.53125 404.8125 154.53125 C 470.628906 154.53125 530.515625 181.378906 573.714844 224.617188 C 616.917969 267.855469 643.742188 327.636719 643.742188 393.820312 C 643.742188 459.691406 616.917969 519.160156 573.714844 562.554688 L 582.761719 571.609375 C 628.300781 526.027344 656.53125 463.125 656.53125 393.664062 Z M 656.53125 393.664062 "/>
<path style=" stroke:none;fill-rule:nonzero;fill:rgb(64.709473%,100%,56.469727%);fill-opacity:1;" d="M 594.925781 293.609375 C 596.019531 293.609375 597.109375 293.296875 598.203125 292.828125 C 601.320312 291.113281 602.570312 287.054688 600.699219 283.777344 C 591.808594 267.855469 580.890625 253.183594 568.414062 239.914062 C 565.917969 237.261719 561.707031 237.105469 559.054688 239.601562 C 556.40625 242.097656 556.25 246.15625 558.746094 248.8125 C 570.441406 261.296875 580.734375 275.191406 589.15625 290.175781 C 590.402344 292.359375 592.585938 293.609375 594.925781 293.609375 Z M 594.925781 293.609375 "/>
<path style=" stroke:none;fill-rule:nonzero;fill:rgb(64.709473%,100%,56.469727%);fill-opacity:1;" d="M 622.21875 384.921875 C 622.375 384.921875 622.53125 384.921875 622.6875 384.921875 C 626.273438 384.609375 629.082031 381.488281 628.769531 377.898438 C 627.523438 359.792969 623.933594 341.839844 618.320312 324.359375 C 617.230469 320.925781 613.484375 318.894531 609.898438 320.144531 C 606.46875 321.238281 604.441406 324.984375 605.6875 328.574219 C 611.148438 344.964844 614.578125 361.820312 615.667969 378.835938 C 615.980469 382.269531 618.789062 384.921875 622.21875 384.921875 Z M 622.21875 384.921875 "/>
<path style=" stroke:none;fill-rule:nonzero;fill:rgb(64.709473%,100%,56.469727%);fill-opacity:1;" d="M 240.277344 251.152344 C 237.46875 248.8125 233.257812 249.28125 230.917969 252.089844 C 219.535156 266.292969 209.710938 281.746094 202.066406 298.292969 C 200.351562 301.726562 201.910156 305.628906 205.1875 307.1875 C 206.121094 307.65625 207.058594 307.8125 207.992188 307.8125 C 210.488281 307.8125 212.828125 306.410156 213.921875 304.066406 C 221.25 288.457031 230.296875 273.941406 241.210938 260.519531 C 243.550781 257.707031 243.085938 253.492188 240.277344 251.152344 Z M 240.277344 251.152344 "/>
<path style=" stroke:none;fill-rule:nonzero;fill:rgb(64.709473%,100%,56.469727%);fill-opacity:1;" d="M 191.773438 463.28125 C 196.921875 479.046875 203.78125 494.34375 212.046875 508.390625 C 213.296875 510.417969 215.480469 511.667969 217.820312 511.667969 C 218.910156 511.667969 220.160156 511.355469 221.25 510.730469 C 224.371094 508.859375 225.460938 504.800781 223.589844 501.679688 C 215.636719 488.253906 209.085938 473.894531 204.25 459.066406 C 203.78125 457.503906 203.316406 456.101562 202.847656 454.539062 C 201.753906 451.105469 198.167969 449.074219 194.582031 450.167969 C 191.148438 451.261719 189.121094 454.851562 190.214844 458.441406 C 190.683594 460.003906 191.148438 461.5625 191.773438 463.28125 Z M 191.773438 463.28125 "/>
<path style=" stroke:none;fill-rule:nonzero;fill:rgb(64.709473%,100%,56.469727%);fill-opacity:1;" d="M 430.078125 177.164062 C 430.390625 173.574219 427.738281 170.296875 423.996094 169.984375 C 417.601562 169.515625 411.207031 169.203125 404.8125 169.203125 C 392.960938 169.203125 381.261719 170.140625 369.566406 172.015625 C 365.980469 172.640625 363.484375 176.074219 364.109375 179.664062 C 364.574219 182.941406 367.382812 185.28125 370.660156 185.28125 C 370.96875 185.28125 371.4375 185.28125 371.75 185.125 C 382.667969 183.410156 393.742188 182.472656 404.8125 182.472656 C 410.894531 182.472656 416.976562 182.628906 422.90625 183.253906 C 426.648438 183.566406 429.765625 180.753906 430.078125 177.164062 Z M 430.078125 177.164062 "/>
<path style=" stroke:none;fill-rule:nonzero;fill:rgb(64.709473%,100%,56.469727%);fill-opacity:1;" d="M 519.285156 216.03125 C 520.378906 216.8125 521.625 217.125 522.875 217.125 C 525.058594 217.125 527.242188 216.03125 528.488281 214.003906 C 530.515625 210.882812 529.582031 206.824219 526.460938 204.792969 C 511.175781 194.960938 494.644531 187 477.488281 181.066406 C 474.058594 179.820312 470.316406 181.691406 469.066406 185.125 C 467.820312 188.714844 469.691406 192.617188 473.125 193.710938 C 489.34375 199.175781 504.9375 206.824219 519.285156 216.03125 Z M 519.285156 216.03125 "/>
<path style=" stroke:none;fill-rule:nonzero;fill:rgb(64.709473%,100%,56.469727%);fill-opacity:1;" d="M 317.320312 187.15625 C 300.476562 194.335938 284.570312 203.390625 270.066406 214.316406 C 267.101562 216.5 266.632812 220.714844 268.816406 223.523438 C 270.066406 225.242188 272.09375 226.179688 274.121094 226.179688 C 275.523438 226.179688 276.925781 225.710938 278.175781 224.773438 C 291.898438 214.472656 306.714844 205.886719 322.625 199.175781 C 326.054688 197.769531 327.613281 193.867188 326.210938 190.433594 C 324.804688 187 320.59375 185.75 317.320312 187.15625 Z M 317.320312 187.15625 "/>
<path style=" stroke:none;fill-rule:nonzero;fill:rgb(64.709473%,100%,56.469727%);fill-opacity:1;" d="M 198.011719 352.769531 C 198.636719 349.179688 196.296875 345.742188 192.710938 344.964844 C 189.121094 344.183594 185.691406 346.523438 184.910156 350.113281 C 182.105469 364.320312 180.699219 378.835938 180.699219 393.351562 L 180.542969 393.351562 C 180.699219 393.664062 180.699219 393.664062 180.699219 393.664062 C 180.699219 397.253906 180.855469 401 181.011719 404.589844 C 181.167969 408.179688 184.132812 410.832031 187.5625 410.832031 C 187.71875 410.832031 187.71875 410.832031 187.875 410.832031 C 191.460938 410.679688 194.269531 407.554688 194.113281 403.808594 C 193.957031 400.375 193.800781 396.941406 193.800781 393.507812 L 193.957031 393.507812 C 193.957031 379.929688 195.359375 366.191406 198.011719 352.769531 Z M 198.011719 352.769531 "/>
</g>
</svg>
