<svg width="350" height="350" viewBox="0 0 350 350" fill="none" xmlns="http://www.w3.org/2000/svg">
<path d="M199.5 8C199.5 3.58172 195.918 0 191.5 0H8C3.58172 0 0 3.58172 0 8V342C0 346.418 3.58173 350 8 350H192C196.418 350 200 346.418 200 342V283C200 278.582 196.418 275 192 275H83C78.5817 275 75 271.418 75 267V220C75 215.582 78.5817 212 83 212H267C271.418 212 275 215.582 275 220V342C275 346.418 278.582 350 283 350H342C346.418 350 350 346.418 350 342V8C350 3.58172 346.418 0 342 0H283C278.582 0 275 3.58172 275 8V129C275 133.418 271.418 137 267 137H83C78.5817 137 75 133.418 75 129V83C75 78.5817 78.5817 75 83 75H191.5C195.918 75 199.5 71.4183 199.5 67V8Z" fill="currentColor"/>
</svg>
